<?xml version="1.0" encoding="UTF-8" standalone="no"?>
<!-- Created with Inkscape (http://www.inkscape.org/) -->

<svg
   xmlns:dc="http://purl.org/dc/elements/1.1/"
   xmlns:cc="http://creativecommons.org/ns#"
   xmlns:rdf="http://www.w3.org/1999/02/22-rdf-syntax-ns#"
   xmlns:svg="http://www.w3.org/2000/svg"
   xmlns="http://www.w3.org/2000/svg"
   xmlns:sodipodi="http://sodipodi.sourceforge.net/DTD/sodipodi-0.dtd"
   xmlns:inkscape="http://www.inkscape.org/namespaces/inkscape"
   version="1.1"
   id="svg815"
   width="100"
   height="122"
   viewBox="0 0 100 122"
   sodipodi:docname="edit.svg"
   inkscape:version="0.92.3 (2405546, 2018-03-11)">
  <metadata
     id="metadata821">
    <rdf:RDF>
      <cc:Work
         rdf:about="">
        <dc:format>image/svg+xml</dc:format>
        <dc:type
           rdf:resource="http://purl.org/dc/dcmitype/StillImage" />
        <dc:title></dc:title>
      </cc:Work>
    </rdf:RDF>
  </metadata>
  <defs
     id="defs819" />
  <sodipodi:namedview
     pagecolor="#ffffff"
     bordercolor="#666666"
     borderopacity="1"
     objecttolerance="10"
     gridtolerance="10"
     guidetolerance="10"
     inkscape:pageopacity="0"
     inkscape:pageshadow="2"
     inkscape:window-width="1280"
     inkscape:window-height="657"
     id="namedview817"
     showgrid="false"
     inkscape:zoom="4.0163934"
     inkscape:cx="50"
     inkscape:cy="61"
     inkscape:window-x="-8"
     inkscape:window-y="-8"
     inkscape:window-maximized="1"
     inkscape:current-layer="svg815" />
  <g
     id="g825"
     transform="matrix(1.1035591,0,0,1.1480609,-4.7692546,-7.6949688)">
    <path
       style="fill:#d0d0d0"
       d="m 28.2,110.8 c -2.104438,-2.10444 -1.307361,-4.89421 2.8,-9.8 2.674193,-3.19403 4,-5.751003 4,-7.714466 0,-5.259032 5.150422,-8.498222 18.669362,-11.741484 5.708302,-1.36945 7.802114,-2.415313 10.274251,-5.132008 1.707689,-1.876623 2.981476,-3.407171 2.830638,-3.401218 -0.150838,0.006 -2.383471,0.650919 -4.961408,1.433256 -2.577936,0.782337 -7.977936,1.739516 -12,2.127064 -8.214878,0.791548 -11.217772,1.690928 -13.600147,4.073303 -1.851937,1.851937 -2.60134,4.713782 -0.970403,3.705808 0.669697,-0.413896 0.769875,-0.17896 0.269157,0.631218 -0.752784,1.218031 -1.08808,3.015518 -1.383827,7.418565 C 33.956141,94.953044 28,86.834363 28,84.047614 28,81.896607 31.627235,78 33.629544,78 c 2.634511,0 2.06097,-1.656353 -1.653318,-4.774686 -3.457002,-2.902328 -4.124961,-3.114668 -6.456336,-2.052423 -2.438964,1.111267 -2.96742,0.821641 -8.511983,-4.665067 C 11.675381,61.230941 4.1099689,49.556698 5.2706653,48.396001 c 0.5845724,-0.584572 8.2988307,9.540965 8.0326367,10.543434 -0.108183,0.407413 2.013107,2.917326 4.713978,5.577586 4.413496,4.347131 5.153325,4.726276 7.307334,3.744844 2.117794,-0.964931 3.022916,-0.578273 7.77893,3.323072 C 36.063794,74.013222 39.351508,76 40.409575,76 c 2.354698,0 2.252357,-0.10475 -5.293912,-5.418554 -3.344795,-2.355282 -5.751645,-4.635586 -5.348554,-5.067343 0.40309,-0.431757 -0.250025,-0.274058 -1.451368,0.350442 -3.028068,1.574097 -4.090372,1.422364 -1.794617,-0.256332 1.524578,-1.1148 1.663851,-1.680405 0.699805,-2.84201 -0.661967,-0.797622 -0.869981,-1.783817 -0.462253,-2.191546 0.407728,-0.407728 0.275792,-0.591324 -0.29319,-0.40799 C 25.896503,60.35 23.925911,58.925 22.086393,57 l -3.344578,-3.5 3.629092,4.668297 C 26.316098,63.243208 26.815793,64.527027 24.5,63.638374 23.675,63.321791 23,63.498646 23,64.031385 23,68.035123 15.486371,59.965794 11.098815,51.25 8.5030685,46.093601 9.0232248,45.683477 12.016392,50.526523 c 4.157772,6.727417 7.844984,8.826591 4.126925,2.349509 -4.687143,-8.165284 -3.353904,-8.292688 3.962862,-0.378692 4.066602,4.398537 8.631321,9.270652 10.143821,10.826923 1.5125,1.556271 2.759608,3.132468 2.771351,3.50266 0.0224,0.706086 5.376978,4.61796 10.478649,7.655345 2.988782,1.779433 2.987847,1.77599 -0.25,-0.920556 C 40.685858,71.426241 40,70.094938 40,67.253208 v -3.601836 l 2.496057,2.344924 c 1.372831,1.289708 2.279826,2.561154 2.015543,2.825437 -0.264282,0.264282 0.299992,1.120879 1.253944,1.903548 1.146514,0.940657 1.225989,1.198992 0.234456,0.7621 -0.825,-0.363514 -0.375,0.278049 1,1.425695 3.055304,2.550115 5.78595,2.320792 7.749214,-0.650787 1.666778,-2.522823 1.496184,-2.65066 -4.969777,-3.724166 C 45.084931,67.758721 39.66881,63.374473 40.320741,60.881487 40.62677,59.711229 40.123503,58.856586 38.899607,58.468137 37.85738,58.137346 36.716553,56.659192 36.364436,55.18335 36.01232,53.707507 35.223774,51.868337 34.612113,51.096305 34.000451,50.324273 33.617641,49.534625 33.761425,49.341531 33.905209,49.148438 33.301398,47.305101 32.419623,45.245226 31.537847,43.185352 30.700674,41.05 30.559238,40.5 30.417802,39.95 30.060506,38.825 29.765247,38 29.469987,37.175 28.683601,34.475 28.017721,32 27.351842,29.525 25.998992,26.15 25.011389,24.5 22.03664,19.530052 21.734655,15.899429 23.990395,12.225074 26.622891,7.9370256 29.720798,6.7959075 34.380541,8.397851 c 2.000732,0.6878189 3.400437,1.4878374 3.110456,1.777819 -0.289982,0.289981 2.014776,0.128612 5.121683,-0.3585994 6.129548,-0.9612076 10.57161,-0.017932 14.574837,3.0949784 1.271866,0.989003 3.945182,2.098494 5.940702,2.465536 C 68.694292,16.401369 72,20.026672 72,25.107087 c 0,3.635423 -0.566732,4.741705 -4.199395,8.197374 -3.406348,3.240381 -4.217157,4.702786 -4.293454,7.743827 -0.05173,2.061972 -0.655786,4.42588 -1.342342,5.25313 -1.000694,1.205762 -0.992075,1.590296 0.04345,1.938715 1.039596,0.349787 1.024587,0.758264 -0.07689,2.092646 -2.191797,2.655249 -8.224625,3.920169 -16.832292,3.529274 -7.293756,-0.331227 -7.911527,-0.214343 -6.955779,1.316053 0.576899,0.923761 2.106833,2.16159 3.399855,2.75073 C 44.709472,59.28038 53.677762,59.330409 54.5,58 c 0.339919,-0.55 1.566476,-1 2.725684,-1 1.159207,0 1.844123,-0.263526 1.522036,-0.585613 C 58.072179,55.738846 61.951747,51 63.180335,51 63.631151,51 64,52.339626 64,53.976947 64,57.835595 60.911756,59.877369 53.876483,60.670052 47.687591,61.367371 45,62.501698 45,64.416469 c 0,1.393876 7.089661,3.627747 11.19282,3.526729 C 59.305218,67.866573 68.26204,57.026457 66.939688,54.936654 65.739238,53.039501 65.776545,46.893162 67,45 c 0.533156,-0.825 0.976265,-1.137406 0.984687,-0.694236 0.0084,0.44317 1.196462,-0.45683 2.640088,-2 C 72.068402,40.762594 72.652604,40.4 71.923004,41.5 c -1.145617,1.727216 -1.130121,1.824274 0.113618,0.711606 0.792091,-0.708617 1.445389,-2.058617 1.451772,-3 C 73.502495,37.132039 81.269845,33 85.164886,33 c 2.311766,0 2.90164,0.581407 3.766032,3.711974 3.057268,11.072514 -4.718953,23.788973 -14.107309,23.06969 -3.357282,-0.257216 -3.936273,0.104416 -6.670433,4.166275 -2.522209,3.746986 -2.766596,4.61425 -1.550775,5.50328 0.793796,0.580438 1.710581,2.702614 2.0373,4.715947 0.535133,3.297635 0.306342,3.809376 -2.307388,5.160988 C 64.73653,80.153366 61.75894,81.142198 59.715445,81.52556 57.67195,81.908922 56,82.574356 56,83.004302 c 0,1.658878 3.106555,1.849123 6.569284,0.402303 4.893544,-2.044654 14.019715,-1.954982 19.381652,0.19044 l 4.390313,1.756655 -3.786119,1.310787 c -4.268257,1.477708 -6.580215,0.805559 -3.919987,-1.139648 1.559749,-1.140516 1.301765,-1.359703 -2.320724,-1.971718 -4.93438,-0.833658 -11.56435,0.233465 -10.649297,1.714052 0.409401,0.662424 -0.146085,0.840315 -1.51013,0.483609 -1.186764,-0.310345 -1.93785,-0.208456 -1.669081,0.226421 C 62.754679,86.41208 61.63602,87.322339 60,88 c -1.644672,0.681245 -2.683375,1.703294 -2.323246,2.285995 0.420161,0.679833 -0.01719,0.797346 -1.232228,0.331091 -1.035961,-0.397535 -1.5671,-0.406327 -1.18031,-0.01954 0.606938,0.606937 -1.344776,2.708612 -5.97201,6.430871 C 48.62792,97.56279 47.641977,98 47.101223,98 c -0.540754,0 -1.2911,0.49821 -1.667435,1.107134 -0.929639,1.504186 2.783991,0.364363 8.809172,-2.703796 8.04519,-4.096795 17.970953,-7.47022 20.043993,-6.812263 1.430807,0.454121 1.749376,0.276723 1.174231,-0.65388 -0.568597,-0.92001 -0.301149,-1.089761 0.956559,-0.607134 C 77.37795,88.698528 78.828328,89 79.640804,89 c 0.861975,0 1.180052,0.480844 0.763704,1.154508 -0.445627,0.72104 -0.273932,0.882825 0.457295,0.430902 0.643952,-0.397984 0.884176,-1.187408 0.533832,-1.754277 -0.428823,-0.693849 0.0025,-0.68841 1.319938,0.01665 C 86.854126,91.062666 94,100.46307 94,103.69246 94,104.0017 92.005374,102.41614 89.567498,100.16898 83.957079,94.997478 78.858361,92.861964 72.783234,93.139167 70.152455,93.259208 68,93.438292 68,93.537131 c 0,0.09884 2.475,1.823017 5.5,3.831504 3.600408,2.390536 5.5,4.339025 5.5,5.641575 0,3.53068 -3.621903,2.22026 -9.591824,-3.470354 -3.150474,-3.003079 -6.145354,-5.202289 -6.655288,-4.887132 -0.509934,0.315156 -0.550443,0.891592 -0.09002,1.280968 13.068718,11.052118 15.95541,12.297558 18.116637,7.816308 0.807436,-1.6742 1.102455,-1.82309 1.152815,-0.58179 C 82.079298,106.79098 80.832595,108 76.949919,108 73.752591,108 72.03427,107.08416 66.630725,102.5 63.065025,99.475 59.649457,97 59.040574,97 58.43169,97 55.713432,98.125 53,99.5 c -2.713432,1.375 -5.983472,2.5 -7.266756,2.5 -1.283284,0 -2.939261,0.5625 -3.679948,1.25 -1.696103,1.57431 -1.407498,1.04084 5.627492,-10.402094 C 50.606354,88.089255 53,83.940878 53,83.629291 c 0,-1.109664 -3.522516,0.770298 -4.818422,2.571585 -0.725132,1.007921 -1.706538,1.592715 -2.180902,1.299542 -0.474364,-0.293173 -1.188102,-0.0062 -1.586086,0.637779 -0.451923,0.731227 -0.290138,0.902922 0.430902,0.457295 1.588423,-0.9817 1.448829,-0.04762 -0.553576,3.704168 -0.939447,1.760187 -1.75811,3.42534 -1.819252,3.70034 -0.645444,2.903026 -5.732684,12.16255 -6.935839,12.62424 -1.887086,0.72415 -4.773553,-1.43219 -3.871306,-2.89206 0.373701,-0.60466 0.159451,-0.74204 -0.511011,-0.32767 -2.834466,1.7518 0.450006,6.0001 3.734688,4.83063 0.848934,-0.30225 1.117659,-0.0553 0.690983,0.63513 C 34.656367,112.36503 29.718008,112.31801 28.2,110.8 Z m 6.3,-8.8 c 0.995486,-1.1 1.584975,-2 1.309975,-2 -0.275,0 -1.314489,0.9 -2.309975,2 -0.995486,1.1 -1.584975,2 -1.309975,2 0.275,0 1.314489,-0.9 2.309975,-2 z m 3.627555,-4.75 c 1.243871,-1.586056 1.208501,-1.621426 -0.377555,-0.377555 -0.9625,0.754844 -1.75,1.542344 -1.75,1.75 0,0.823034 0.821186,0.293303 2.127555,-1.372445 z m 4,-5 c 1.243871,-1.586056 1.208501,-1.621426 -0.377555,-0.377555 -0.9625,0.754844 -1.75,1.542344 -1.75,1.75 0,0.823034 0.821186,0.293303 2.127555,-1.372445 z m -1.236111,-3.526818 c 1.222504,-1.554191 1.188778,-1.691196 -0.277781,-1.128425 -0.918073,0.352298 -2.106722,1.458015 -2.641443,2.457151 -2.074659,3.876536 -0.673517,3.238786 2.919224,-1.328726 z M 65.689192,65.059235 c 4.357142,-6.426379 5.678448,-9.087917 4.698359,-9.464012 -0.749957,-0.287786 -1.256457,-0.157702 -1.125555,0.289074 0.130902,0.446777 -2.802912,4.705582 -6.519586,9.464012 C 57.617305,71.909941 56.424788,74 57.806046,74 c 1.173831,0 3.976074,-3.178198 7.883146,-8.940765 z M 65,71 c 0,-0.55 -0.198442,-1 -0.440983,-1 -0.242541,0 -0.719098,0.45 -1.059017,1 -0.339919,0.55 -0.141476,1 0.440983,1 C 64.523442,72 65,71.55 65,71 Z M 22,62.654988 c 0,-0.189757 -1.0125,-1.202257 -2.25,-2.25 L 17.5,58.5 19.404988,60.75 C 21.195206,62.864445 22,63.455241 22,62.654988 Z M 81.391231,55.172089 C 84.498452,52.42491 86.95455,45.864792 86.978038,40.25 L 87,35 83.25,35.01531 c -2.935614,0.01199 -3.424246,0.247995 -2.25,1.086746 1.214271,0.867341 1.085659,0.981228 -0.675182,0.597873 -1.467807,-0.319558 -2.018222,-0.06453 -1.692529,0.784211 0.265459,0.691775 -0.246731,1.537663 -1.1382,1.879752 -0.891469,0.342089 -1.343865,1.070156 -1.005324,1.617927 0.380289,0.61532 1.562967,0.375163 3.094591,-0.628396 1.363483,-0.893388 2.752427,-1.350977 3.086541,-1.016863 0.334114,0.334114 -0.536217,1.042313 -1.934069,1.573776 -1.397852,0.531462 -2.841356,1.451393 -3.207787,2.04429 -0.366431,0.592897 -1.034155,0.850609 -1.483832,0.572693 -0.449678,-0.277915 -1.337488,0.121131 -1.972912,0.886771 -1.542444,1.858531 -3.23653,7.80606 -2.007025,7.046185 C 72.578922,51.142206 73,51.631669 73,52.547972 c 0,1.152174 -0.539737,1.478041 -1.75,1.056563 -1.458797,-0.50803 -1.426992,-0.359431 0.19113,0.893011 1.067621,0.82635 2.642621,1.509345 3.5,1.517767 1.37514,0.01351 1.382079,0.140901 0.05887,1.080883 -1.136627,0.807438 -0.773255,0.905979 1.5,0.406777 1.65,-0.362337 3.851054,-1.411235 4.891231,-2.330884 z M 49.5,52 C 49.879734,51.385577 48.263789,51.005904 45.309017,51.015313 41.83542,51.026373 40.916536,51.299812 42,52 c 1.967716,1.271636 6.714086,1.271636 7.5,0 z m 10.932549,-2.053311 c 0.538078,-0.526099 -0.471124,-0.509218 -2.385812,0.03991 -1.825097,0.523431 -3.594744,1.253882 -3.932548,1.623225 -0.92591,1.012356 5.242611,-0.611335 6.31836,-1.663132 z M 67.689326,47.25 c -0.251528,-0.9625 -0.457323,-0.175 -0.457323,1.75 0,1.925 0.205795,2.7125 0.457323,1.75 0.251527,-0.9625 0.251527,-2.5375 0,-3.5 z M 51.5,48.9146 c 2.2,-0.570728 4.542705,-1.084993 5.206011,-1.14281 0.663307,-0.05782 0.974249,-0.480123 0.690983,-0.938457 C 57.113729,46.375 57.286292,46 57.780468,46 c 0.494176,0 1.401244,-1.103398 2.015706,-2.451995 0.973225,-2.135997 0.897256,-2.371892 -0.589485,-1.830435 -1.43732,0.523459 -1.391315,0.262884 0.291479,-1.650968 l 1.998167,-2.272528 -5.998167,0.560043 C 52.199175,38.66214 50.4,38.660049 51.5,38.349471 c 2.956566,-0.834768 4.428205,-2.288418 6.573088,-6.492735 2.019176,-3.957912 2.707866,-12.457426 0.919849,-11.352371 -0.553884,0.34232 -1.277029,-0.08112 -1.606989,-0.940983 -0.883375,-2.302039 -5.035881,-1.90126 -6.829244,0.659124 C 49.700517,21.444885 49,24.199985 49,26.344951 c 0,3.292034 0.22584,3.712508 1.448848,2.697502 0.796866,-0.661341 1.966715,-2.771592 2.599664,-4.689447 0.63295,-1.917855 1.318771,-3.319056 1.524048,-3.113779 0.379454,0.379453 -1.180683,7.027229 -2.290712,9.760773 -0.765613,1.88539 -0.989781,2.681385 -1.196886,4.25 -0.335851,2.543749 -3.207598,-4.489846 -3.769196,-9.231664 -0.533833,-4.507384 -0.332128,-5.15582 2.477881,-7.965829 2.609332,-2.609332 3.430324,-2.917852 5.584821,-2.098713 2.085131,0.792765 2.423742,0.694347 1.940829,-0.564103 -0.418613,-1.090888 -1.767432,-1.451695 -4.742899,-1.268719 -2.286859,0.14063 -4.771612,-0.123587 -5.521671,-0.587149 -0.933562,-0.576973 -1.132024,-0.46791 -0.629157,0.345747 0.517397,0.837166 -0.02344,1.051131 -1.829224,0.723679 -1.410096,-0.255699 -2.865661,0.02349 -3.234587,0.62043 -0.434144,0.70246 -0.175303,0.800246 0.733733,0.277193 C 42.867971,15.056393 42.6,15.604319 41.5,16.718486 40.4,17.832652 39.106169,18.515417 38.62482,18.235739 37.652535,17.670814 38.299205,29.348981 39.414693,32.5 c 0.38941,1.1 -0.127492,0.520399 -1.148669,-1.288002 -1.021178,-1.808401 -2.114879,-3.02981 -2.430446,-2.714242 C 34.849927,29.483406 32,22.361941 32,18.913322 c 0,-1.983949 0.850835,-4.190092 2.148836,-5.571751 l 2.148836,-2.287331 -3.398836,1.077739 c -1.86936,0.592757 -4.331729,1.120553 -5.471932,1.17288 -1.625597,0.0746 -2.000361,0.645583 -1.736145,2.645141 0.299276,2.264882 0.231449,2.326378 -0.606619,0.55 -0.832864,-1.765347 -0.951816,-1.790911 -1.013855,-0.217881 -0.2014,5.106618 5.740691,13.373691 12.855839,17.885985 5.434552,3.44649 3.253662,3.768274 -2.652334,0.391343 L 30.047581,32.142984 31.6388,34.571492 C 32.513971,35.907171 33.654823,37 34.174027,37 c 0.519204,0 0.669077,0.444846 0.333052,0.988546 -0.362901,0.587187 0.08575,0.721195 1.105028,0.330061 1.164228,-0.446756 1.48349,-0.282304 0.992921,0.511454 C 36.166763,39.53919 36.51927,40 37.5,40 c 0.889919,0 1.353971,0.427263 1.031227,0.949474 -0.572801,0.926812 2.399028,1.673983 9.468773,2.380619 1.925,0.192408 0.572029,0.42185 -3.006602,0.50987 -3.578631,0.08802 -7.99934,-0.268075 -9.823797,-0.791322 l -3.317196,-0.951359 4.323798,3.910346 C 40.887115,50.268072 44.003711,50.8593 51.5,48.9146 Z M 63,34.909446 c 0.825,-0.466746 1.1074,-0.862313 0.627555,-0.879037 -0.479844,-0.01673 -0.317,-0.699678 0.361876,-1.517674 1.429379,-1.722297 0.669006,-4.533969 -1.208046,-4.467057 -0.704762,0.02512 -2.232906,2.061093 -3.395875,4.524378 l -2.114491,4.478701 2.114491,-0.645341 C 60.548479,36.048478 62.175,35.376192 63,34.909446 Z m 6.565937,-6.036953 c 1.454382,-2.812466 1.996828,-6.768592 0.75825,-5.530013 -0.371697,0.371697 -1.79426,-0.340803 -3.16125,-1.583334 -1.366991,-1.24253 -2.142598,-1.666357 -1.723572,-0.941838 0.504768,0.872771 0.053,1.502682 -1.338749,1.866631 -2.622174,0.685714 -2.739038,2.978658 -0.192997,3.78674 2.55654,0.811415 3.340614,3.194812 1.925075,5.851763 -1.063195,1.995605 -1.015607,2.058306 0.569523,0.750391 0.951311,-0.784942 2.374985,-2.675095 3.16372,-4.20034 z M 36.16784,16.255744 C 35.416173,13.777623 34,16.208739 34,19.97723 c 0,6.471076 1.424247,8.247505 2.022624,2.52277 0.287444,-2.75 0.352791,-5.559915 0.145216,-6.244256 z M 70,21.622445 c 0,-0.207656 -0.7875,-0.995156 -1.75,-1.75 C 66.663944,18.628574 66.628574,18.663944 67.872445,20.25 69.178814,21.915748 70,22.445479 70,21.622445 Z M 39.561367,12.228034 c -0.87075,-0.87075 -3.343464,1.176237 -2.879958,2.384115 0.458001,1.193531 0.782566,1.135587 1.855097,-0.331187 0.714984,-0.977799 1.176172,-1.901617 1.024861,-2.052928 z"
       id="path839"
       inkscape:connector-curvature="0" />
    <path
       style="fill:#b0afaf"
       d="m 28.571429,110.42857 c -2.328957,-2.32895 -1.978195,-3.65644 2.428571,-9.1911 2.615241,-3.284606 4,-6.039001 4,-7.956316 0,-5.363895 4.549779,-8.048995 19.987302,-11.795716 7.841099,-1.903052 8.887717,-2.514875 10.975524,-6.415977 1.153727,-2.15576 1.372805,-2.221106 2.241617,-0.668626 1.606043,2.86984 0.185904,4.375746 -5.896432,6.252536 -3.194406,0.985679 -6.115819,2.232917 -6.492028,2.77164 -1.518527,2.174498 0.516484,2.352881 5.861785,0.513828 6.849165,-2.356458 15.097255,-2.494488 20.104351,-0.33644 3.320376,1.431074 3.504047,1.690853 1.717881,2.429714 -1.1,0.455024 -3.098508,0.858945 -4.44113,0.897602 -2.343152,0.06746 -2.363727,0.01369 -0.512627,-1.339871 1.810102,-1.323578 1.698637,-1.453278 -1.815544,-2.112542 -5.131818,-0.962735 -12.410472,0.245816 -13.154277,2.184142 -0.376096,0.980089 -1.344558,1.370947 -2.589953,1.045268 -1.263614,-0.330442 -1.746501,-0.127452 -1.323804,0.556486 0.419923,0.679449 0.05592,0.842789 -0.986624,0.442729 -0.953765,-0.365994 -1.55145,-0.17365 -1.414045,0.455061 0.130902,0.598957 -0.387134,1.316141 -1.151192,1.593744 -0.764057,0.277602 -1.13125,0.08737 -0.815983,-0.422746 0.804734,-1.302087 -1.010431,-3.961408 -1.990448,-2.916121 -0.442405,0.47187 -0.218022,1.066788 0.49863,1.322041 0.977694,0.348229 0.877458,0.775262 -0.401491,1.710452 -1.344987,0.983478 -1.429036,1.416597 -0.398494,2.053507 0.863223,0.533501 1.06409,0.415736 0.592474,-0.347357 C 53.203052,90.519529 53.331966,90 53.881966,90 c 0.55,0 1.248973,0.402847 1.553273,0.895215 0.917782,1.485002 -2.569059,2.229165 -4.311987,0.920266 C 49.759403,90.791262 49.699756,90.820466 50.75,91.998228 52.243419,93.672974 52.413351,95.373499 51,94.5 c -0.55,-0.339919 -1,-0.09333 -1,0.547972 0,0.64295 -0.69618,0.898856 -1.551938,0.570471 -0.943244,-0.361957 -1.296184,-0.181716 -0.899862,0.459546 0.358642,0.580295 -0.180486,1.685829 -1.198062,2.456742 -3.714946,2.814439 1.117262,1.532199 9.496585,-2.519951 4.532511,-2.191872 10.808707,-4.440543 13.947103,-4.997048 3.138396,-0.556504 7.010555,-1.3034 8.604799,-1.659768 1.914027,-0.42785 2.677833,-0.290692 2.24862,0.403789 -0.407861,0.659933 0.117083,0.851132 1.40915,0.513249 2.540503,-0.664357 7.284104,3.586394 10.089126,9.040887 l 1.962355,3.815891 -5.11927,-4.046552 C 82.317793,93.812253 72.54148,90.735765 69.19704,92.857061 c -0.929282,0.589421 0.30004,1.930463 4.286476,4.676026 3.412876,2.350538 5.472547,4.456543 5.289265,5.408253 -0.542117,2.81499 -3.191206,1.68305 -8.587998,-3.669601 C 67.261413,96.372283 64.475471,94 63.9938,94 c -2.784483,0 -1.241888,2.426108 4.394103,6.9108 7.157506,5.6954 11.077316,6.58 12.580935,2.8392 0.640084,-1.59244 0.922914,-1.76247 0.967776,-0.58179 C 82.071325,106.71357 80.818328,108 77.230383,108 c -2.85995,0 -4.942337,-1.14332 -10.643011,-5.84347 L 59.5,96.313062 l -6,2.840351 c -6.598077,3.123477 -11.061581,3.752427 -10.171642,1.433287 0.298285,-0.777322 2.833897,-5.108066 5.634694,-9.623881 4.476069,-7.216909 4.816705,-8.126303 2.814653,-7.514262 -1.252738,0.382971 -2.842709,0.738715 -3.533268,0.790543 -0.69056,0.05183 -1.140883,0.593627 -1.000717,1.203998 0.140165,0.610371 -1.470657,3.460371 -3.579606,6.333333 -4.104559,5.591529 -5.810144,6.996081 -3.00372,2.473569 2.425747,-3.909057 0.308386,-1.775231 -5.584038,5.627459 -5.790124,7.274171 -6.267023,9.521001 -2.326356,10.960261 l 2.75,1.00439 -2.678571,0.0789 c -1.473215,0.0434 -3.385715,-0.62819 -4.25,-1.49248 z M 42.192392,87.640512 C 42.981993,86.16513 42.907986,85.925567 41.849768,86.531427 39.044171,88.137713 37,90.362615 37,91.809975 c 0,1.207877 0.407535,1.131186 2.092624,-0.393799 1.150943,-1.041589 2.545839,-2.740638 3.099768,-3.775664 z M 44.970303,88.75 47.316723,85.5 44.658362,87.924314 C 43.196263,89.257687 42,90.720187 42,91.174314 42,92.562837 42.529608,92.130579 44.970303,88.75 Z M 32.666667,108.33333 C 32.3,107.96667 32,107.12854 32,106.47084 c 0,-1.27807 5.381071,-8.445052 6.587694,-8.774066 1.360554,-0.370987 1.218681,3.185806 -0.199233,4.994826 -1.051904,1.34205 -1.349224,1.42158 -1.152945,0.3084 0.145466,-0.825 0.714484,-1.87176 1.264484,-2.32613 0.596817,-0.49305 0.395226,-0.66104 -0.5,-0.41667 -1.676963,0.45777 -2.064363,2.64545 -0.776835,4.38685 0.50844,0.68768 0.205235,1.78469 -0.760076,2.75 -1.734791,1.7348 -2.749788,1.98592 -3.796422,0.93928 z m 2.780547,-3.41874 c -0.321976,-0.52097 -1.011657,-0.68378 -1.532624,-0.3618 -0.520968,0.32197 -0.683779,1.01165 -0.361804,1.53262 0.321976,0.52097 1.011657,0.68378 1.532624,0.3618 0.520968,-0.32197 0.683779,-1.01165 0.361804,-1.53262 z M 30.75,89.553345 C 26.496193,84.222184 27.250765,81.784099 34.483235,77.49095 35.968,76.609603 35.653797,76.056512 32.000549,73.120682 28.142083,70.019935 27.62218,69.864244 25.291504,71.111584 22.86758,72.408829 22.52917,72.212754 16.953061,66.280287 10.878416,59.817423 5.5728611,51.781417 6.1793407,49.961978 c 0.1949657,-0.584897 1.4718727,0.833612 2.8375712,3.152242 1.3656981,2.31863 4.9304191,6.858584 7.9216021,10.088786 4.816891,5.201799 5.764584,5.801478 8.291254,5.246529 2.377485,-0.522184 3.762289,0.122225 8.312367,3.868099 3.835914,3.157934 6.068184,4.335525 7.505852,3.959566 1.697802,-0.443985 0.925876,-1.286683 -4.533399,-4.949027 -3.724661,-2.498683 -6.29422,-4.875719 -5.921876,-5.478185 0.43352,-0.70145 -0.151971,-0.834952 -1.717483,-0.391615 -1.539994,0.43611 -1.91903,0.354832 -1.077895,-0.231138 1.048489,-0.730421 1.017613,-1.135926 -0.160972,-2.114065 -0.979251,-0.812706 -1.668933,-0.869485 -2.099482,-0.172844 -0.416358,0.673682 -1.510414,0.467896 -3.120236,-0.5869 -1.363483,-0.893388 -2.253312,-1.850091 -1.977397,-2.126006 0.275914,-0.275915 -0.326279,-1.677459 -1.338207,-3.114542 -2.413396,-3.427366 -6.338763,-11.208489 -5.883865,-11.663387 0.700115,-0.700115 5.875544,6.591469 5.318378,7.492983 -0.312497,0.505631 -0.04131,1.244952 0.602644,1.642936 0.794005,0.490722 0.908277,0.271582 0.355061,-0.680902 -0.448667,-0.772479 0.381804,-0.313567 1.845492,1.019806 C 24.142771,57.478688 25.0667,59.130172 22.5,57 21.675,56.315311 21,56.190466 21,56.722568 21,57.818119 25.091843,61.770595 25.428257,61 c 0.369053,-0.845361 7.557633,4.431529 7.56491,5.553141 0.0085,1.303734 11.422813,9.453167 13.207973,9.430012 0.714373,-0.0093 -0.166633,-0.955351 -1.957792,-2.102413 C 40.650363,71.579785 39.851382,69.480267 40.292913,63.5 l 0.295325,-4 8.239567,-0.290987 c 4.531762,-0.160042 8.002518,-0.674539 7.712792,-1.143326 -0.289727,-0.468787 0.541344,-1.120421 1.846822,-1.448075 1.320466,-0.331416 2.633925,-1.591229 2.960336,-2.839427 0.436799,-1.670321 0.876042,-1.954388 1.718829,-1.111601 1.802005,1.802005 0.147284,5.000133 -3.349838,6.474325 -1.851367,0.780434 -6.341293,1.302428 -10.577977,1.229785 -4.048677,-0.06942 -6.789485,0.227141 -6.090684,0.659024 0.698801,0.431883 1.986355,0.535645 2.861231,0.230583 1.291923,-0.450483 1.35591,-0.301632 0.340684,0.79252 -2.150277,2.317446 -1.385034,3.81567 2.5,4.894598 7.69127,2.135972 9.556802,1.550565 14.350568,-4.50323 2.419688,-3.055695 4.250343,-6.318195 4.068123,-7.25 C 66.986471,54.262385 66.677365,51.925 66.481788,50 l -0.355593,-3.5 0.805261,3.5 0.805262,3.5 0.131641,-4.35 c 0.106887,-3.532014 0.780388,-4.998747 3.581641,-7.8 1.8975,-1.8975 3.423513,-3.765 3.39114,-4.15 -0.03237,-0.385 2.423869,-1.576841 5.458315,-2.648536 C 87.670347,31.948238 89,32.980604 89,41.30672 c 0,10.912347 -5.448664,18.114036 -13.744303,18.166324 -3.944006,0.02486 -4.506518,0.374114 -7.231061,4.489653 -1.967082,2.971361 -2.583235,4.69207 -1.843784,5.149075 1.675275,1.035378 0.192248,3.795877 -2.612057,4.862072 C 61.50876,74.757068 39.806342,78 36.624869,78 c -0.527011,0 -0.685252,0.27295 -0.351647,0.606556 0.333606,0.333605 0.07111,1.188476 -0.583333,1.899713 -0.89864,0.976632 -1.557044,1.015961 -2.689889,0.160678 -1.191123,-0.899282 -1.17163,-0.724193 0.09466,0.850286 1.376447,1.711442 1.664716,6.806064 0.607287,10.732683 C 33.590878,92.66237 32.2625,91.448913 30.75,89.553345 Z m 2.916667,-5.009356 c 0,-0.800807 -0.343906,-1.243466 -0.764235,-0.983688 C 32.482102,83.820078 31.851008,83.567943 31.5,83 c -0.775402,-1.254628 -2.505927,-0.342929 -2.484687,1.309017 0.01077,0.837954 0.259252,0.80643 0.838271,-0.106351 0.657318,-1.036215 1.081429,-0.985897 2.107132,0.25 1.581444,1.905523 1.705951,1.912188 1.705951,0.09132 z M 55.020287,72.25 57.185734,69.5 52.557343,68.827817 c -2.545614,-0.369701 -6.198673,-1.598674 -8.117908,-2.73105 -3.362671,-1.984025 -3.451767,-1.988326 -2.450974,-0.118327 0.5712,1.067297 0.919969,2.398017 0.775042,2.957156 -0.399297,1.540521 5.43861,5.987558 7.913917,6.028441 1.214425,0.02006 3.135119,-1.180263 4.342867,-2.714037 z M 59.75,73.346653 c 0.9625,-0.359341 2.386261,-0.696841 3.163912,-0.75 C 63.691564,72.543494 64.552244,71.825 64.826534,71 c 0.427652,-1.286278 0.261816,-1.304452 -1.163913,-0.127555 -2.608411,2.153166 -2.003193,0.679339 2.794938,-6.806233 4.277711,-6.673663 4.590412,-6.932686 7.750313,-6.419905 2.437367,0.39553 4.014312,-0.03324 6.070341,-1.650509 5.532127,-4.351572 9.361853,-16.454136 6.449302,-20.380856 -1.338671,-1.804805 -1.610977,-1.814383 -6.396189,-0.224991 -2.895508,0.961733 -4.997993,2.262041 -4.997993,3.091069 0,0.787052 0.444529,1.156269 0.987842,0.820483 0.572214,-0.353648 0.669904,-0.09608 0.232183,0.612162 -0.415613,0.672475 -1.342861,0.997352 -2.060553,0.721948 -0.717691,-0.275404 -2.062639,0.336565 -2.988773,1.359932 -1.344542,1.485702 -1.449021,2.227817 -0.518451,3.682561 1.122741,1.75516 1.144231,1.754488 0.58668,-0.01835 -0.721259,-2.293375 0.368223,-4.37409 1.408757,-2.690472 0.758672,1.227557 -0.97503,7.415219 -2.455009,8.762043 -0.464567,0.422769 -0.562093,-0.01883 -0.216723,-0.981329 0.345369,-0.9625 0.313919,-2.5375 -0.06989,-3.5 -0.485141,-1.216619 -0.897409,-0.378448 -1.352633,2.75 -0.360141,2.475 -0.281556,4.902936 0.174631,5.395414 0.682942,0.73727 -4.698925,8.187104 -12.929497,17.89762 -1.624106,1.916139 -1.38036,1.919751 3.618102,0.05362 z M 73.8125,56.316886 c 0.721875,-0.288871 1.584375,-0.253344 1.916667,0.07895 0.332291,0.332292 -0.258334,0.568641 -1.3125,0.52522 -1.164943,-0.04798 -1.4019,-0.284941 -0.604167,-0.604167 z M 69.872445,54.25 C 68.628574,52.663944 68.663944,52.628574 70.25,53.872445 71.915748,55.178814 72.445479,56 71.622445,56 c -0.207656,0 -0.995156,-0.7875 -1.75,-1.75 z M 78,41.570368 c 0,-0.275 0.9,-0.981666 2,-1.570368 1.1,-0.588702 2,-0.845368 2,-0.570368 0,0.275 -0.9,0.981666 -2,1.570368 -1.1,0.588702 -2,0.845368 -2,0.570368 z M 17.81956,61.102299 c -1.834958,-2.143735 -4.415409,-5.856235 -5.734335,-8.25 -2.8592055,-5.189269 -2.1939627,-4.763807 2.187789,1.399221 1.774842,2.496353 3.564486,4.585997 3.976986,4.643652 0.4125,0.05765 0.777247,0.442328 0.810549,0.854828 0.0333,0.4125 1.011743,1.7625 2.174314,3 1.162571,1.2375 1.620389,2.25 1.017374,2.25 -0.603015,0 -2.59772,-1.753965 -4.432677,-3.897701 z m 19.16938,-5.122966 c -0.594786,-1.111366 -0.838203,-2.414213 -0.540928,-2.895215 0.297276,-0.481002 -0.136088,-1.13418 -0.963031,-1.451508 -0.826942,-0.317327 -1.426691,-0.92698 -1.332775,-1.354784 0.09392,-0.427804 -0.3645,-2.077736 -1.018703,-3.666514 -1.533537,-3.724306 -0.870551,-4.333199 1.539587,-1.413974 1.045605,1.266464 2.890801,2.865162 4.100436,3.552662 4.766588,2.709106 16.974963,0.703447 20.792677,-3.415935 2.44151,-2.634433 3.395226,-6.046295 1.334029,-4.772405 -0.798373,0.493422 -0.797912,0.115671 0.0017,-1.378385 1.035907,-1.935609 0.890377,-2.023827 -2.445579,-1.482476 l -3.54703,0.575603 2.545348,-4.78714 c 2.741521,-5.156093 3.21387,-10.273088 1.422629,-15.411447 -1.347468,-3.865348 -4.351692,-5.21127 -9.194222,-4.119102 -1.970612,0.444445 -3.819586,0.571428 -4.10883,0.282184 -0.289244,-0.289244 -1.099273,-0.06956 -1.800064,0.488177 -0.700791,0.557742 -2.05579,0.887547 -3.011109,0.732901 -2.616629,-0.423577 -4.184376,5.817821 -2.891369,11.51091 1.249183,5.500135 0.746925,6.431559 -0.853384,1.582577 -0.649564,-1.968199 -1.031913,-5.666876 -0.849665,-8.219283 0.202232,-2.832272 -0.109251,-4.793218 -0.7993,-5.032014 -1.441481,-0.498834 -2.558868,3.863109 -1.907378,7.445835 0.428057,2.354006 0.340755,2.291714 -0.606275,-0.432589 C 30.504243,15.553058 34.602873,10.840961 43.912167,9.6060393 48.737737,8.9659048 54.625884,10.58853 58,13.488292 c 0.825,0.709016 2.97328,1.602325 4.773955,1.985131 10.283426,2.186154 12.268165,11.562576 3.946925,18.646298 -2.388765,2.033513 -3.121015,3.519416 -3.272373,6.640391 -0.234627,4.83801 -1.155705,6.566224 -3.101595,5.819516 -0.810166,-0.31089 -1.181009,-0.120209 -0.839833,0.431826 C 59.843104,47.555154 60.803976,48 61.64235,48 c 2.481316,0 0.999544,2.362812 -2.701901,4.308413 C 56.160729,53.769525 53.723561,54.04872 46.25,53.762195 41.1625,53.567148 37,53.617929 37,53.875041 c 0,0.257113 0.744744,1.290411 1.654988,2.296218 C 39.588008,57.202236 39.821475,58 39.190171,58 38.574279,58 37.583725,57.0907 36.98894,55.979333 Z M 50,52 c 1.059639,-0.684791 -0.261446,-0.969374 -4.5,-0.969374 -4.238554,0 -5.559639,0.284583 -4.5,0.969374 0.825,0.533156 2.85,0.969374 4.5,0.969374 1.65,0 3.675,-0.436218 4.5,-0.969374 z m 9.335646,-1.219353 c 2.895915,-1.487184 1.334181,-1.9052 -2.423488,-0.648675 -4.551983,1.522135 -6.342103,3.22936 -2.412158,2.300458 1.65,-0.390002 3.826041,-1.133304 4.835646,-1.651783 z M 62.945312,35.0279 C 67.765013,32.569072 71,28.557434 71,25.039455 c 0,-3.046093 -4.13176,-7.543679 -6.178518,-6.725563 -0.927403,0.370695 -0.836129,0.551756 0.306073,0.607161 0.895156,0.04342 2.131653,0.686347 2.747771,1.428724 0.915812,1.103486 0.345134,1.293266 -3.127555,1.040073 -2.336274,-0.170337 -3.733042,-0.08116 -3.103929,0.198171 0.629113,0.27933 0.924204,1.347768 0.655759,2.374306 -0.315341,1.205867 0.253109,2.263107 1.606158,2.987237 2.074976,1.110493 2.857033,4.460971 1.270182,5.441698 -0.453232,0.280114 -0.790732,-0.466785 -0.75,-1.659774 0.137395,-4.024077 -2.825468,-2.990333 -5.010162,1.748047 -2.34158,5.078652 -1.964254,5.351086 3.529533,2.548365 z M 39.632796,12.299462 c -0.984339,-0.984339 -3.433515,1.056281 -2.908827,2.423596 0.520877,1.357384 0.768451,1.324003 1.926525,-0.259758 0.730863,-0.999514 1.172898,-1.973241 0.982302,-2.163838 z m 3.904791,1.496285 c 0.327511,-0.327512 0.166524,-0.860582 -0.357749,-1.184601 -0.524273,-0.324019 -1.479326,0.04479 -2.122339,0.819571 -0.922402,1.111428 -0.846909,1.361407 0.357749,1.184601 0.839775,-0.123253 1.794827,-0.49206 2.122339,-0.819571 z M 34,42.584702 c -1.925,-0.694727 -3.5,-1.747992 -3.5,-2.340588 0,-0.592596 -0.3375,-1.414947 -0.75,-1.827447 -0.4125,-0.4125 -0.75,-1.878735 -0.75,-3.258299 0,-2.470005 0.02858,-2.478911 1.872122,-0.583333 1.029667,1.058731 1.681295,2.257311 1.448062,2.663511 -0.233233,0.4062 0.386812,0.447001 1.377878,0.09067 0.991066,-0.356331 1.501938,-0.313677 1.135271,0.09479 -1.425916,1.588462 3.565222,4.846691 8.541042,5.575615 L 48.5,43.750488 43,43.799166 c -3.025,0.02677 -7.075,-0.519736 -9,-1.214464 z m 4,-6.281656 C 34.400097,35.009339 27,29.666149 27,28.360571 27,27.573555 26.309422,25.875679 25.465383,24.587511 21.526087,18.575386 22.231621,11.551959 27.03299,8.9823444 29.690726,7.5599674 38.801525,8.5984749 37.252742,10.147258 35.876284,11.523716 29.761928,11.924077 28.25,10.736747 27.5625,10.196847 26.948093,10.147711 26.88465,10.627555 26.821208,11.1074 26.664749,11.95 26.536965,12.5 26.40918,13.05 26.236087,14.089058 26.152314,14.809017 26.068541,15.528976 25.55,15.839919 25,15.5 c -1.57638,-0.974256 -1.128956,2.621518 0.871013,7 1.688061,3.695631 8.108028,10.366719 12.694634,13.191193 2.065266,1.271809 1.867132,1.486128 -0.565647,0.611853 z m 10.909497,-3.472152 c -1.976064,-3.69231 -1.686118,-12.307286 0.495491,-14.722191 2.285419,-2.529817 5.834057,-2.734293 7.722567,-0.444983 1.240251,1.50347 1.162702,1.551975 -0.805113,0.503586 -4.306188,-2.294201 -7.692067,1.687167 -7.143694,8.400087 L 49.5,30.5 51.746262,27 c 2.562533,-3.992797 3.005421,-3.354275 0.728058,1.04966 C 51.635196,29.672347 51.240296,31 51.596765,31 c 0.356468,0 0.146928,0.603904 -0.465644,1.342009 -0.612573,0.738105 -0.817673,1.638105 -0.455778,2 C 51.037238,34.703904 51.049166,35 50.70185,35 50.354535,35 49.547976,34.023902 48.909497,32.830894 Z"
       id="path837"
       inkscape:connector-curvature="0" />
    <path
       style="fill:#908e8f"
       d="M 28.571429,110.42857 C 26.22976,108.0869 26.60206,106.69933 31,101.37721 c 2.35162,-2.845781 4,-5.88967 4,-7.386373 0,-4.849721 4.861439,-8.90872 12.5,-10.436723 2.716907,-0.543485 2.777818,-0.502972 0.645482,0.429325 -1.659834,0.725711 -2.160565,1.534872 -1.697147,2.74252 0.361554,0.942194 0.332605,1.388314 -0.06433,0.991379 -0.396935,-0.396936 -1.545719,0.02403 -2.552852,0.935468 -2.06711,1.870708 -2.493746,3.863301 -0.581152,2.714253 0.827097,-0.496904 0.778886,-0.170372 -0.142501,0.965149 -0.765875,0.943868 -1.624471,1.484153 -1.90799,1.200634 C 40.513121,92.846455 38,94.976689 38,96.244889 c 0,0.55 0.7875,0.3824 1.75,-0.372444 1.591282,-1.24797 1.623706,-1.211535 0.357499,0.401721 -0.765875,0.975791 -1.629357,1.537309 -1.918848,1.247818 C 37.504515,96.837848 34,100.00714 34,101.30998 c 0,0.55 1.004745,0.14275 2.232767,-0.90499 1.311301,-1.118799 1.733822,-1.255483 1.023793,-0.3312 -0.853991,1.1117 -0.896752,1.88602 -0.145634,2.63714 0.751118,0.75111 0.736857,1.26511 -0.04857,1.75053 -0.61155,0.37796 -1.04747,0.31625 -0.968712,-0.13713 0.347818,-2.00224 -0.201761,-2.70179 -1.058367,-1.34717 -0.642832,1.01656 -0.404197,2.08356 0.765313,3.42189 0.934676,1.06961 1.175345,1.63958 0.53482,1.26661 -0.640524,-0.37296 -1.371774,-0.11282 -1.625,0.57811 -0.367951,1.00395 -0.731508,1.00019 -1.810369,-0.0187 -1.11136,-1.04962 -1.121207,-1.64125 -0.05571,-3.34738 1.934983,-3.0984 0.688988,-3.37112 -1.674448,-0.3665 -2.343389,2.97914 -2.019808,4.76817 1.138456,6.29438 l 2.191663,1.0591 -2.178571,0.0677 c -1.198215,0.0372 -2.885715,-0.63946 -3.75,-1.50375 z M 42.785743,86.45241 C 41.821715,85.488382 37,90.201111 37,92.107376 c 0,1.607857 0.565808,1.317797 3.133081,-1.606166 1.723194,-1.96261 2.916892,-3.78457 2.652662,-4.0488 z m 23.603518,15.47594 -7.110738,-5.977093 -4.889262,2.516156 C 48.566981,101.46373 43,102.76274 43,101.125 43,100.50625 44.025195,100 45.278212,100 c 1.253016,0 5.529103,-1.557948 9.502415,-3.462106 C 62.600364,92.790385 66.748213,91.530892 74.5,90.55011 c 3.562521,-0.450742 4.568756,-0.337663 3.5,0.393324 -2.053573,1.404563 0.448636,1.422015 3.065741,0.02138 2.63296,-1.409117 5.264687,0.128184 8.965639,5.2372 3.844733,5.307506 3.778089,6.656896 -0.16491,3.33908 C 85.15484,95.57652 79.418536,92.95534 74.066815,92.321507 67.133286,91.500333 66.931002,93.269796 73.462631,97.606554 78.879867,101.2034 80.599083,104 77.393011,104 c -1.00201,0 -1.394919,-0.55264 -1.043674,-1.46797 0.309823,-0.80739 0.06344,-1.77692 -0.547519,-2.15451 -0.64003,-0.395564 -0.831416,-0.23443 -0.451563,0.38019 0.375905,0.60822 -0.02187,0.96675 -0.92546,0.83413 -0.871602,-0.12792 -1.914046,-0.76543 -2.316543,-1.41668 C 70.984455,98.356814 64.773925,94 63.30572,94 c -2.606383,0 -1.182177,2.009163 4.929808,6.9546 6.639929,5.37262 10.83909,6.46356 12.684373,3.2954 1.341575,-2.30334 1.381681,-0.68203 0.04492,1.81574 -2.020007,3.77442 -6.765789,2.42729 -14.575555,-4.13739 z M 87.765544,95.61932 C 86.811592,94.894929 86.287633,94.0457 86.60119,93.732143 86.914746,93.418587 86.226789,92.656558 85.072396,92.038745 83.551051,91.224546 82.4956,91.215391 81.23675,92.005474 c -1.459372,0.915936 -1.3574,0.985433 0.638479,0.435141 1.598277,-0.440666 2.153724,-0.296479 1.698063,0.440797 -0.438305,0.709191 -0.07187,0.863407 1.038815,0.437195 1.120429,-0.429949 1.478218,-0.273773 1.030906,0.449994 -0.376793,0.609663 0.111887,1.572451 1.085955,2.13953 2.491774,1.45065 3.103005,1.280349 1.036576,-0.288811 z m -40.66065,-1.369435 c 1.247329,-2.062437 3.310179,-5.318582 4.584111,-7.235879 2.120846,-3.191922 2.169798,-3.537364 0.580283,-4.094935 -1.207882,-0.423702 -0.569198,-0.827827 2.099561,-1.328489 2.109535,-0.395751 4.089536,-0.46553 4.400001,-0.155065 C 59.079316,81.745983 58.6113,82 57.728816,82 c -0.98807,0 -1.546637,0.768391 -1.453863,2 0.08286,1.1 0.18299,2 0.22251,2 0.03952,0 2.632516,-0.9 5.762213,-2 6.943179,-2.440331 13.326549,-2.549487 18.890995,-0.323037 3.528633,1.411879 3.887498,1.795954 2.270236,2.429715 C 82.364408,86.520691 80.375,86.862534 79,86.866328 l -2.5,0.0069 2.5,-1.071875 2.5,-1.071876 -2.5,-0.765058 c -5.589349,-1.710471 -18.796871,-0.0628 -17.415316,2.172604 0.285556,0.462038 -0.253001,0.543751 -1.196791,0.181585 -1.112429,-0.426879 -1.477314,-0.272311 -1.037417,0.439458 0.641804,1.038461 -2.90295,2.891849 -4.640986,2.426557 C 52.854612,88.688051 50.098925,91.09422 50.707177,92.6793 51.168365,93.881135 50.976663,94.103611 50,93.5 c -0.970664,-0.599903 -1.169304,-0.383583 -0.720866,0.785028 0.45559,1.187248 0.193142,1.449696 -0.994106,0.994106 -1.001376,-0.384264 -1.36347,-0.215073 -0.954816,0.446142 0.362065,0.585835 -0.05078,1.337256 -0.917444,1.669825 -1.212603,0.465319 -1.053098,-0.259518 0.692126,-3.145216 z M 55.6,86.52601 c 0,-2.351068 -0.09268,-2.39012 -1.86524,-0.785971 -1.793396,1.623001 -1.795322,1.715586 -0.05,2.403705 0.998382,0.393627 1.83774,0.747314 1.86524,0.785971 0.0275,0.03866 0.05,-1.043011 0.05,-2.403705 z M 30.602971,89.369134 C 28.208109,86.367686 27.861796,85.284325 28.60507,83.119163 29.107997,81.654133 30.925846,79.839026 32.730456,79 c 1.774443,-0.825 3.235998,-1.799687 3.247902,-2.165971 0.0119,-0.366284 -1.805945,-2.113446 -4.039662,-3.882583 -3.6404,-2.88325 -4.332928,-3.092852 -6.682209,-2.022448 -2.485558,1.132496 -2.935395,0.86055 -8.710826,-5.266071 C 11.023089,59.804541 5.1341514,50.532515 6.2360441,49.430623 c 0.2423541,-0.242355 1.6877357,1.850674 3.2119591,4.651175 1.5242238,2.8005 5.2241128,7.50574 8.2219778,10.456087 4.913536,4.835657 5.685431,5.257301 7.833055,4.278778 2.119822,-0.965855 3.059626,-0.519609 8.527124,4.048923 C 38.709947,76.775922 39.677231,78 38.087446,78 36.939351,78 36,78.435877 36,78.968615 36,79.501354 35.25118,79.649881 34.335955,79.298676 33.265151,78.88777 32.914461,79.052578 33.352267,79.760963 33.726463,80.366425 33.567943,81.148992 33,81.5 c -0.567943,0.351008 -0.769189,1.064443 -0.447214,1.58541 0.321976,0.520968 1.116816,0.628492 1.766312,0.238943 0.880786,-0.528269 0.875852,-0.330982 -0.01942,0.77629 -0.67553,0.835499 -0.999276,3.105462 -0.740486,5.191958 0.252908,2.039069 0.343052,3.707386 0.200319,3.70737 -0.142733,-1.7e-5 -1.563177,-1.633893 -3.156543,-3.630837 z m -0.179829,-4.611292 c -0.661001,-2.082631 -0.57686,-2.135993 1.182612,-0.75 1.703476,1.341882 1.770754,1.33366 0.66804,-0.08164 -0.96261,-1.235476 -0.964999,-1.880383 -0.01111,-3 0.668303,-0.784413 0.14507,-0.451181 -1.162738,0.740517 -1.448237,1.319658 -2.140313,2.785694 -1.770274,3.75 0.938973,2.446926 1.89616,1.870165 1.093472,-0.658881 z m 21.141619,7.346943 c -0.304301,-0.492369 0.09622,-1.144451 0.890055,-1.449073 0.962773,-0.36945 1.258189,-0.07139 0.887268,0.895216 -0.644606,1.679815 -1.010897,1.79396 -1.777323,0.553857 z M 61.812222,79.945821 c 2.341047,-0.938969 5.288976,-3.427855 5.223492,-4.410107 C 66.882765,73.241468 67.277159,72.817859 68,74.5 c 0.472686,1.1 0.891058,2.360462 0.929715,2.801027 0.08057,0.918299 -6.222357,3.730768 -8.147596,3.635587 -0.705166,-0.03486 -0.241619,-0.48072 1.030103,-0.990793 z M 41.802219,76.408323 C 42.636319,76.017731 40.986221,74.30695 37.211968,71.64926 31.27371,67.467758 29.949385,65.850205 31.925,65.191667 32.51625,64.994583 33,65.480632 33,66.271776 c 0,0.791143 2.659027,3.303643 5.908948,5.583333 5.606528,3.932755 8.932643,5.315631 7.600358,3.159949 -0.378345,-0.612175 0.561865,-0.750824 2.484262,-0.366344 2.399973,0.479994 3.643444,0.101472 5.549711,-1.689372 3.235453,-3.03955 3.101926,-3.752556 -0.793279,-4.235946 -2.904437,-0.360438 -2.811133,-0.420338 0.877522,-0.563359 3.726761,-0.144498 4.580507,-0.710274 8.792906,-5.827035 3.119199,-3.788862 4.438584,-6.191631 3.981048,-7.25 C 67.025092,54.212351 66.574503,52.15 66.400168,50.5 c -0.174335,-1.65 -0.08545,-2.1 0.19752,-1 0.282971,1.1 0.973386,3.188105 1.534256,4.640233 0.926061,2.397632 0.392562,3.441563 -5.806091,11.361146 C 58.571634,70.297882 55.6125,74.622277 55.75,75.111146 55.8875,75.600016 54.712807,76 53.139571,76 c -1.573236,0 -5.060736,0.229078 -7.75,0.509063 -2.689264,0.279984 -4.303572,0.234651 -3.587352,-0.10074 z m 16.753323,-2.367551 c 1.130549,-0.45785 4.436669,-4.459352 7.346935,-8.892226 4.87729,-7.429018 5.507746,-8.016501 8.055959,-7.506859 C 80.688151,58.98763 87.103118,50.904164 87.366642,40.74608 87.48441,36.206443 87.207749,35.454938 85,34.317496 c -2.41743,-1.245472 -2.426849,-1.288499 -0.285184,-1.302754 3.342541,-0.02225 4.608119,3.373393 4.01433,10.770752 -0.773988,9.642267 -6.221338,15.779374 -13.739792,15.479558 -3.660813,-0.145983 -4.212886,0.19949 -7.157071,4.478717 -2.025414,2.943838 -2.759788,4.780396 -2.011278,5.029899 3.74281,1.247604 -2.489621,6.342538 -7.538886,6.162946 -1.51536,-0.0539 -1.474432,-0.187994 0.273423,-0.895842 z M 65,71.5 c 0.694433,-0.83674 0.802716,-1.5 0.244889,-1.5 -0.55,0 -1.5602,0.675 -2.244889,1.5 -0.694433,0.83674 -0.802716,1.5 -0.244889,1.5 0.55,0 1.5602,-0.675 2.244889,-1.5 z m -22.853956,0.155457 c -1.425603,-1.517485 -1.963673,-2.967132 -1.525322,-4.109458 0.638858,-1.664836 0.738214,-1.659475 1.752157,0.09454 1.073677,1.857349 1.266911,2.425746 1.502121,4.418475 0.06875,0.582459 0.644529,0.737931 1.279508,0.345491 0.7153,-0.442079 0.883063,-0.274316 0.440984,0.440984 -0.935534,1.513724 -0.896866,1.527064 -3.449448,-1.190035 z M 44.25,65.884952 C 42.063156,64.48446 41,63.017909 41,61.401799 41,60.080809 41.407871,59 41.90638,59 c 0.49851,0 0.684306,0.849213 0.412882,1.887141 -0.271424,1.037928 0.06523,2.232456 0.748128,2.654509 C 43.920059,64.068628 44.05558,63.898948 43.5,63 c -0.503902,-0.815331 -0.416336,-1.066327 0.232185,-0.665519 0.572661,0.353924 1.560971,0.01721 2.196246,-0.748246 0.882394,-1.063219 0.850127,-1.514089 -0.136693,-1.910042 -0.710456,-0.285064 1.483958,-0.553825 4.876475,-0.597246 6.753098,-0.08643 9.621637,-0.800942 8.767026,-2.183732 C 59.130939,56.402847 59.328199,56 59.873595,56 c 0.545396,0 1.300544,-0.973302 1.678105,-2.162894 0.647456,-2.039953 0.744931,-2.05844 1.714878,-0.325241 C 64.950891,56.521565 60.072265,60 54.166743,60 46.389096,60 41.957652,64.722173 47.75,66.837719 c 1.5125,0.552413 2.075,1.032332 1.25,1.066487 -0.825,0.03415 -2.9625,-0.874509 -4.75,-2.019254 z M 17.722031,60.75 C 14.28616,56.470101 11.760564,52.546593 13.698851,54.5 18.367052,59.204613 23.056049,65 22.19431,65 21.611084,65 19.598558,63.0875 17.722031,60.75 Z m 10.383702,2.877401 c -0.648598,-0.781513 -1.985656,-1.210057 -2.971241,-0.95232 -1.296426,0.339022 -2.798258,-1.003078 -5.43085,-4.853235 C 16.724607,53.465016 11.579181,43.22133 13.263201,45 15.745716,47.622044 22.980361,57.175024 21.6903,56.127555 20.760635,55.372711 20,55.17602 20,55.690464 c 0,1.148796 5.489982,6.507447 6.65654,6.497304 1.486773,-0.01293 3.84776,1.641265 3.22763,2.261395 -0.329543,0.329543 -1.129839,-0.04025 -1.778437,-0.821762 z M 20,54.622445 c 0,-0.207656 -0.7875,-0.995156 -1.75,-1.75 C 16.663944,51.628574 16.628574,51.663944 17.872445,53.25 19.178814,54.915748 20,55.445479 20,54.622445 Z M 36.85,56 C 36.7675,55.45 36.655,54.4375 36.6,53.75 36.545,53.0625 36.244015,52.275 35.931146,52 c -0.31287,-0.275 -1.363211,-2.525 -2.334091,-5 -1.75302,-4.468857 -1.751699,-4.486159 0.190976,-2.5 1.075917,1.1 1.804116,2.269679 1.61822,2.599286 -0.185896,0.329607 0.753496,1.183432 2.087537,1.897389 2.751758,1.472697 15.999534,0.880042 19.253296,-0.861318 C 58.868818,46.999839 63,47.685299 63,49.172862 c 0,0.516779 -2.108951,1.872488 -4.686559,3.012687 -3.940599,1.743114 -6.015048,1.990206 -13.032917,1.552377 -7.850151,-0.489754 -8.310669,-0.408265 -7.746053,1.370681 C 37.864638,56.148873 37.879451,57 37.567388,57 37.255324,57 36.9325,56.55 36.85,56 Z m 20.9,-4.59123 c 3.628447,-1.458878 4.476387,-2.932785 1.064188,-1.849796 C 56.244409,50.37459 52.557655,50.734003 45,50.905686 c -3.916133,0.08896 -5.068036,0.400664 -4,1.082398 2.117262,1.351459 12.873099,0.979459 16.75,-0.579314 z M 69.872445,54.25 C 68.628574,52.663944 68.663944,52.628574 70.25,53.872445 71.915748,55.178814 72.445479,56 71.622445,56 c -0.207656,0 -0.995156,-0.7875 -1.75,-1.75 z M 68.232003,49 c 0,-1.925 0.205795,-2.7125 0.457323,-1.75 0.251527,0.9625 0.251527,2.5375 0,3.5 -0.251528,0.9625 -0.457323,0.175 -0.457323,-1.75 z M 60,46.14235 c 0,-0.563374 0.45,-1.302431 1,-1.64235 1.517467,-0.937846 1.2706,-4.776262 -0.25,-3.887123 -0.6875,0.402001 -0.392756,-0.246441 0.654988,-1.440983 1.873316,-2.135786 1.873316,-2.172545 0,-2.211036 -1.336009,-0.02745 -0.994145,-0.43588 1.144589,-1.367454 6.420156,-2.796446 10.015662,-9.800211 7.471532,-14.553962 -0.988225,-1.846514 -5.966888,-4.076532 -8.920332,-3.995549 -0.880427,0.02414 0.143066,0.665483 2.274429,1.425205 2.131363,0.759722 4.381363,1.920054 5,2.578514 0.870704,0.926755 0.633345,0.944707 -1.050731,0.07947 -2.796104,-1.436571 -5.764849,-0.217374 -6.03725,2.479365 -0.140488,1.390814 0.623914,2.487667 2.25,3.228561 1.64948,0.751554 2.417803,1.872224 2.326593,3.393554 L 65.727636,32.5 65.294267,30.25 c -0.722555,-3.75142 -3.685567,-2.68259 -6.048972,2.18201 -1.552037,3.194559 -1.817079,4.568554 -0.949266,4.921052 0.662184,0.268974 0.217561,0.52457 -0.98805,0.567991 L 55.115958,38 57.545933,33.75 C 60.371315,28.80844 60.8078,21.462794 58.536985,17.071521 56.96004,14.022047 55.187878,13 51.47723,13 50.179672,13 48.839919,12.55 48.5,12 c -0.339919,-0.55 -1.096576,-1 -1.681462,-1 -0.633516,0 -0.50859,0.707472 0.309017,1.75 1.209392,1.542092 1.186142,1.604878 -0.195705,0.528477 -1.248412,-0.97246 -1.986236,-0.928685 -3.618639,0.214695 -1.127768,0.78992 -2.328694,1.158012 -2.668723,0.817983 -0.340029,-0.34003 -1.358957,1.138358 -2.264283,3.285305 -1.31223,3.111901 -1.450027,4.873666 -0.679476,8.687191 0.682033,3.375438 0.653925,4.471003 -0.09548,3.721596 -0.58413,-0.58413 -1.093909,-4.056652 -1.132841,-7.716714 -0.07778,-7.311917 -1.571828,-9.202705 -3.216466,-4.070582 -1.051157,3.280153 -1.051823,3.280434 -1.153852,0.486594 -0.167986,-4.599936 5.122261,-8.65493 10.188422,-7.809463 0.434781,0.07256 1.72168,-0.366422 2.859776,-0.9755127 1.59899,-0.8557535 3.123836,-0.7140851 6.70949,0.6233567 C 54.411899,11.494862 57.175,12.84527 58,13.543832 c 0.825,0.698562 3.388372,1.772823 5.696382,2.387247 C 73.21232,18.46435 74.716481,27.216062 66.801896,34 64.613557,35.875722 63.712165,37.727785 63.19216,41.416819 62.810969,44.12107 61.936791,46.52107 61.249543,46.750152 60.562294,46.979235 60,46.705724 60,46.14235 Z M 41.231016,13.564349 c 0.312792,0.312792 0.837576,0.133683 1.166187,-0.39802 0.342464,-0.554118 -0.669896,-0.87899 -2.371905,-0.761157 -3.456793,0.23932 -4.504735,1.010066 -3.526156,2.59344 0.495139,0.801152 1.205231,0.673914 2.431287,-0.435651 0.952531,-0.862029 1.987795,-1.311404 2.300587,-0.998612 z M 35,42.831529 C 31.272076,41.779089 28.678038,40 30.871429,40 c 0.901298,0 0.813964,-0.457464 -0.3,-1.571429 C 29.707143,37.564286 29,35.989286 29,34.928571 29,33.088745 29.08436,33.080527 30.833333,34.75 c 1.008334,0.9625 1.720834,1.9 1.583334,2.083333 -0.789714,1.052952 4.664136,4.76081 8.540531,5.806372 4.43233,1.195511 4.457689,1.224756 1.042802,1.202613 -1.925,-0.01248 -5.075,-0.467337 -7,-1.010789 z m 36.568603,-1.907334 c 2.125574,-2.348733 2.320399,-2.373677 2.009785,-0.257324 -0.134555,0.91678 -1.033611,1.782667 -1.997901,1.924195 -1.666957,0.244657 -1.667542,0.16261 -0.01188,-1.666871 z M 33.518979,33.71238 C 31.329417,32.472285 29.062875,30.567188 28.482219,29.478831 27.901563,28.390474 26.432204,25.925 25.216978,24 19.475508,14.905125 26.248905,5.0246679 35.5,9 c 1.1,0.4726862 1.6625,0.9473078 1.25,1.054715 -2.243027,0.58404 -3.39239,0.463184 -4.691958,-0.4933625 C 30.917705,8.7220088 30.800977,8.8137631 31.5,10 c 0.732811,1.243575 0.622436,1.288419 -0.645657,0.262323 -1.271082,-1.0285151 -1.756294,-0.8140456 -2.871149,1.26908 -0.872708,1.630668 -1.590234,2.10442 -2.053062,1.355549 -1.173846,-1.899323 -2.189259,2.918246 -1.447954,6.869738 0.484811,2.584267 2.436407,5.34708 7.002388,9.913061 3.481637,3.481637 6.259415,6.322846 6.172841,6.313799 -0.08657,-0.009 -1.948866,-1.031074 -4.138428,-2.27117 z m 15.104228,-2.251903 c -0.957949,-2.496375 -0.719763,-4.161654 0.352621,-2.465348 0.811671,1.283909 1.170481,1.213273 2.539853,-0.5 1.52359,-1.906221 1.5401,-1.883723 0.370506,0.504871 -0.673281,1.375 -1.114356,2.71375 -0.980167,2.975 0.134189,0.26125 -0.184327,0.617769 -0.707813,0.792264 -0.523486,0.174496 -1.232236,-0.413559 -1.575,-1.306787 z m -1.201328,-8.061324 c 1.671873,-6.79267 6.486506,-9.63781 9.705676,-5.735433 1.244486,1.508603 1.162667,1.55194 -0.877555,0.464816 -3.07678,-1.63945 -6.148438,0.113654 -6.915039,3.946658 -0.326307,1.631534 -1.050791,3.249179 -1.609966,3.594768 -0.657508,0.406363 -0.764593,-0.395869 -0.303116,-2.270809 z"
       id="path835"
       inkscape:connector-curvature="0" />
    <path
       style="fill:#807e7e"
       d="M 28.654988,110.17126 C 26.342981,107.61652 26.490029,107.08047 31,101.62279 c 2.267789,-2.744342 4,-5.904507 4,-7.297415 0,-1.351272 0.465046,-3.325804 1.033436,-4.38785 1.085713,-2.028674 8.479685,-6.275192 10.004773,-5.745958 0.488845,0.169638 -3.119295,5.400516 -8.018089,11.624172 -9.087538,11.545231 -9.816445,13.513391 -5.63102,15.204551 l 2.1109,0.85294 -2.095012,0.0634 c -1.152257,0.0349 -2.839757,-0.75954 -3.75,-1.76535 z M 40.380278,90.391414 C 41.96443,88.486108 42.997123,86.663789 42.67515,86.341816 41.940137,85.606804 36,91.46339 36,92.923077 c 0,1.861323 1.401016,1.05158 4.380278,-2.531663 z m -8.048407,17.031046 c -0.339542,-0.88483 0.175202,-2.31193 1.172252,-3.25 0.977686,-0.91985 1.48188,-1.14105 1.120432,-0.49156 -0.361448,0.6495 -0.219492,1.45141 0.315459,1.78203 1.13846,0.7036 0.274589,3.53707 -1.078388,3.53707 -0.508417,0 -1.196807,-0.70989 -1.529755,-1.57754 z m 2.125424,-0.35336 c 0.316431,-0.512 0.192988,-1.1672 -0.274316,-1.45601 -0.467305,-0.28881 -0.849646,0.13009 -0.849646,0.9309 0,1.68617 0.315337,1.83349 1.123962,0.52511 z M 66.39001,101.95738 59.280019,95.952498 52.89001,98.97546 C 46.329626,102.07902 43,102.76062 43,101 c 0,-0.55 1.136234,-1 2.524964,-1 1.38873,0 5.565565,-1.531222 9.281855,-3.402715 C 62.16727,92.890621 66.80861,91.492329 74.5,90.66434 c 3.590755,-0.38655 4.436302,-0.268789 3,0.417816 -1.548244,0.740117 -1.209428,0.839132 1.5,0.438356 2.507892,-0.370965 3.074811,-0.238994 2,0.465573 -1.3222,0.866737 -1.316274,0.985105 0.05,0.998602 0.8525,0.0084 2.05079,-0.485477 2.662868,-1.097555 1.460726,-1.460726 2.801784,-0.539818 6.353182,4.362745 3.812638,5.263193 3.731627,6.599113 -0.19958,3.291219 -7.290833,-6.134832 -15.515207,-8.561022 -22.210685,-6.552151 -2.285682,0.685782 -4.770687,1.424802 -5.522234,1.642266 -0.808645,0.233987 1.436532,2.653059 5.5,5.925989 5.724228,4.6106 7.409919,5.4732 10.133513,5.18551 1.972207,-0.20832 3.13058,0.0715 2.9227,0.7061 -0.1894,0.57815 -1.884578,1.1552 -3.767064,1.28232 -2.887277,0.19497 -4.534937,-0.70824 -10.53269,-5.77375 z M 87.55887,95.468197 C 86.491249,94.660688 86.018749,94 86.50887,94 86.998992,94 86.86,93.46 86.2,92.8 c -0.879462,-0.879462 -1.496573,-0.903427 -2.310281,-0.08972 -0.813708,0.813708 -0.346256,1.524224 1.75,2.659962 3.611063,1.956451 4.431681,1.998335 1.919151,0.09795 z m -11.500791,6.779913 c -1.310508,-1.06118 -1.967229,-2.18622 -1.459382,-2.500091 1.276893,-0.789164 4.697471,1.863481 4.226172,3.277371 -0.251787,0.75536 -1.204638,0.48768 -2.76679,-0.77728 z M 35,101.62244 c 0,-0.20765 0.7875,-0.99515 1.75,-1.749995 1.586056,-1.243871 1.621426,-1.208501 0.377555,0.377555 C 35.821186,101.91575 35,102.44548 35,101.62244 Z m 35.728727,-3.599349 c -0.774464,-1.105702 -1.660193,-1.758292 -1.968286,-1.450198 -0.308094,0.308093 -0.837571,0.111325 -1.176617,-0.437264 -1.289115,-2.085831 1.152129,-1.921302 3.890505,0.262203 1.786333,1.424372 2.446319,2.533176 1.760206,2.957217 -0.60373,0.373126 -1.731344,-0.226255 -2.505808,-1.331958 z m -21.437292,-4.67156 c -0.829994,-0.336907 -0.300395,-1.94968 1.690712,-5.148678 1.762843,-2.83226 2.498928,-4.905532 1.877905,-5.289346 -0.561755,-0.347184 0.436799,-0.922877 2.21901,-1.279319 1.78221,-0.356442 3.468507,-0.419952 3.747327,-0.141132 C 59.105208,81.771875 58.66796,82 57.854725,82 c -0.813234,0 -2.476706,1.35 -3.696604,3 -1.516375,2.051007 -1.797295,3 -0.888058,3 0.731465,0 1.757437,-0.394427 2.279937,-0.876505 2.2043,-2.033769 12.851811,-5.114007 17.237513,-4.986671 L 77.5,82.273648 l -6,0.754353 c -7.084377,0.890686 -12.72107,2.805283 -11.946876,4.057956 0.302914,0.490124 -0.221441,0.594816 -1.165231,0.23265 -1.156417,-0.443759 -1.482508,-0.280714 -1,0.5 0.482508,0.780714 0.156417,0.943759 -1,0.5 -1.156417,-0.443759 -1.482508,-0.280714 -1,0.5 0.482508,0.780714 0.156417,0.943759 -1,0.5 -1.156417,-0.443759 -1.482508,-0.280714 -1,0.5 0.482508,0.780714 0.156417,0.943759 -1,0.5 -1.256381,-0.482119 -1.496745,-0.30375 -0.897429,0.665963 0.582116,0.941884 0.43599,1.08801 -0.505894,0.505894 -0.961671,-0.594346 -1.149543,-0.362759 -0.685894,0.845491 0.351205,0.915225 0.540178,1.628519 0.419939,1.585098 -0.120238,-0.04342 -0.762469,-0.299706 -1.42718,-0.569522 z m -18.707337,-4.0009 c -2.445229,-2.939217 -2.76593,-3.931418 -1.986797,-6.146868 0.511007,-1.453042 2.273163,-3.330814 3.915901,-4.172828 C 34.155941,78.188921 35.725,77.341926 36,77.148724 36.275,76.955522 34.514566,75.080436 32.087925,72.981867 27.900296,69.360388 27.556951,69.244191 25.33859,70.697717 23.079574,72.177881 22.807907,72.028383 17.223492,66.231976 11.998714,60.808858 4.059743,48.682821 6.8718399,50.420793 c 0.636207,0.393197 2.108151,2.579824 3.2709871,4.85917 1.162835,2.279346 4.538388,6.510985 7.501227,9.403642 4.881843,4.766204 5.613997,5.155942 7.807956,4.156307 2.165908,-0.986854 3.018053,-0.59297 8.088159,3.738556 l 5.667184,4.841626 -3.162245,1.064718 c -1.739234,0.585595 -2.900014,1.326949 -2.57951,1.647452 0.320504,0.320504 -0.09369,1.144112 -0.920419,1.830241 -0.990919,0.822389 -1.217539,1.808075 -0.665017,2.8925 0.797095,1.564448 2.319202,8.22501 1.844838,8.072798 -0.12375,-0.03971 -1.537156,-1.649436 -3.140902,-3.577172 z m 0.578258,-4.025001 c -0.761936,-1.361503 -0.609131,-2.279456 0.602269,-3.618037 1.499567,-1.657003 1.497081,-1.74525 -0.03262,-1.158246 -2.243875,0.861055 -3.17439,4.21268 -1.672118,6.022807 1.619485,1.951359 2.398915,1.070088 1.102474,-1.246524 z m 48.396514,0.206173 c 1.902172,-1.43873 1.902663,-1.468835 0.02446,-1.5 -1.054166,-0.01749 -1.631095,-0.317374 -1.282064,-0.666405 0.349031,-0.349031 2.097719,-0.02856 3.885974,0.712161 3.237552,1.341037 3.240876,1.349687 0.782065,2.034921 -4.360933,1.215328 -5.523306,1.017417 -3.410438,-0.580677 z M 65.377517,77.801818 c -0.415723,-0.672654 -0.231126,-0.829377 0.467975,-0.39731 0.763338,0.47177 1.178322,-0.238224 1.224793,-2.095491 C 67.132108,72.838197 67.244043,72.740794 68,74.5 c 1.222828,2.845674 1.177578,3.217879 -0.467975,3.849337 -0.807386,0.309823 -1.776915,0.06344 -2.154508,-0.547519 z M 42.473008,76.043674 C 42.798081,75.517695 43.724639,75.34084 44.532025,75.650663 46.599138,76.443889 46.355548,77 43.940983,77 42.808524,77 42.147935,76.569653 42.473008,76.043674 Z M 50,75.276156 c 2.481566,-0.448151 7,-3.925481 7,-5.387112 0,-0.41928 -1.4625,-0.943822 -3.25,-1.165648 -2.904437,-0.360438 -2.811133,-0.420338 0.877522,-0.563359 3.724452,-0.144409 4.581107,-0.711002 8.772321,-5.802031 3.403831,-4.134602 4.487746,-6.205197 4.056971,-7.75 C 66.987939,52.926574 67.081503,52.803538 67.919181,54 c 0.577606,0.825 1.057084,1.79797 1.065506,2.162155 0.0084,0.364186 -3.10272,4.621381 -6.913649,9.460434 -3.810929,4.839053 -6.709371,9.153583 -6.440983,9.587845 0.268389,0.434261 -1.451079,0.728284 -3.821038,0.653384 C 49.075567,75.77743 48.41411,75.562555 50,75.276156 Z m 9,-1.017332 c 0.825,-0.320805 2.095871,-1.297779 2.824157,-2.171053 0.728287,-0.873274 1.039229,-1.025271 0.690983,-0.337771 -0.865823,1.70929 0.963405,1.583241 2.415519,-0.166449 0.924192,-1.113583 0.843168,-1.487769 -0.378934,-1.75 -1.220417,-0.261869 -0.70129,-1.61537 2.415618,-6.29815 3.818843,-5.737351 4.118239,-5.953902 7.858316,-5.68386 3.221924,0.23263 4.422942,-0.253988 7.008667,-2.839713 C 85.004446,51.841708 88,44.00183 88,38.875203 88,37.15486 87.161909,35.526386 85.777494,34.556704 83.994163,33.30761 83.888409,33 85.24231,33 89.234077,33 90.340739,43.451272 87.103669,50.578599 84.518022,56.27163 80.730533,59 75.413182,59 c -4.017172,0 -4.541297,0.325859 -7.544136,4.690335 -2.045887,2.973595 -2.795504,4.834179 -2.048041,5.083333 3.516854,1.172285 -2.499775,6.426884 -7.038886,6.147385 C 57.941042,74.869263 58.015992,74.64146 59,74.258824 Z M 42.290401,71.75 c -1.380849,-1.509509 -1.824874,-2.884151 -1.34918,-4.176885 0.692448,-1.881777 1.299829,-1.305269 2.030072,1.926885 0.124262,0.55 0.647389,1.7875 1.162503,2.75 1.270657,2.374244 0.62589,2.199358 -1.843395,-0.5 z M 30.608688,67.175861 c -0.352721,-0.570715 -0.154032,-1.33882 0.441531,-1.706898 1.486099,-0.91846 2.012205,-0.188001 1.020408,1.41676 -0.531342,0.85973 -1.0467,0.962008 -1.461939,0.290138 z m 13.898391,-1.164407 c -0.350339,-0.56686 0.05106,-0.734507 0.940983,-0.393011 C 47.180479,66.283234 47.497449,67 46.059017,67 45.541476,67 44.843104,66.555154 44.507079,66.011454 Z M 19.337923,62.75 c -2.213674,-2.477123 -7.268224,-9.852173 -5.654205,-8.25 4.208427,4.177539 9.397636,10.5 8.617956,10.5 -0.524175,0 -1.857863,-1.0125 -2.963751,-2.25 z m 22.269066,0.668213 C 40.772653,61.243969 40.84534,58.99953 41.75,59.00228 c 0.4125,0.0013 0.797916,1.351255 0.856481,3 0.119978,3.377712 -0.117558,3.714217 -0.999492,1.415933 z M 18.591757,55.82304 C 14.476158,49.39032 13.322286,47 14.332635,47 c 0.18295,0 1.842482,1.878801 3.687849,4.175114 1.845367,2.296312 2.820681,3.844754 2.167364,3.440983 -2.393204,-1.479082 -1.090443,0.89933 2.5151,4.59174 C 25.262884,61.82945 25.908559,63 24.794704,63 23.889307,63 21.172062,59.856082 18.591757,55.82304 Z m 28.026686,4.728898 C 47.043297,59.444785 48.602829,59 52.059936,59 57.19922,59 61.921722,57.398758 62.118483,55.589485 62.183648,54.990268 62.172444,53.825 62.093585,53 c -0.101185,-1.058574 0.191073,-0.952448 0.993116,0.360624 1.847731,3.025029 -1.720318,5.696282 -8.709379,6.520359 -3.233655,0.381279 -6.436257,1.037407 -7.116893,1.458063 -0.845273,0.522408 -1.048758,0.272924 -0.641986,-0.787108 z m -8.436378,-7.688322 c -1.842777,-0.530965 -3.140854,-1.48725 -2.919643,-2.150883 0.219061,-0.657182 -0.200368,-1.793537 -0.932065,-2.525233 -0.731696,-0.731696 -1.316673,-2.085714 -1.299948,-3.008929 0.0251,-1.385254 0.221561,-1.329087 1.124323,0.321429 1.920423,3.5111 4.081901,4.495554 10.286398,4.684982 L 50.5,50.369965 45.223842,50.738149 c -2.980885,0.208014 -5.021591,0.780083 -4.690983,1.315018 0.910158,1.472667 8.743195,1.05261 10.908271,-0.58497 1.067621,-0.807509 1.517621,-1.50278 1,-1.545049 C 51.923508,49.88088 53.3,49.290631 55.5,48.611485 c 7.688053,-2.373325 10.196164,0.262465 3.25,3.415445 -4.647481,2.109569 -14.727177,2.519603 -20.567935,0.836686 z m 19.422022,-1.34266 c 1.946918,-0.813474 3.281449,-1.897146 2.965625,-2.40816 -0.462831,-0.748876 -7.78244,1.957975 -9.486379,3.50814 -1.065237,0.969104 3.352184,0.223933 6.520754,-1.09998 z M 68.157895,48 c 0,-1.375 0.226973,-1.9375 0.504386,-1.25 0.277412,0.6875 0.277412,1.8125 0,2.5 -0.277413,0.6875 -0.504386,0.125 -0.504386,-1.25 z m -7.267653,-3.416667 c 1.334454,-1.683955 1.875687,-7.49469 0.733544,-7.875404 -0.562464,-0.187488 -0.200049,-0.656554 0.805368,-1.042369 1.600885,-0.614317 1.749923,-0.310947 1.199438,2.441479 C 63.282866,39.835668 63,42.24375 63,43.458333 c 0,1.285797 -0.619996,2.208334 -1.484124,2.208334 -0.927159,0 -1.161948,-0.406556 -0.625634,-1.083334 z M 36.465736,43.068061 C 32.564626,42.133089 28.888025,40.079471 31,40.015096 c 1.04346,-0.03181 1.143681,-0.27238 0.329284,-0.790426 -0.643894,-0.409587 -1.473019,-2.090196 -1.8425,-3.734687 L 28.815001,32.5 31.022884,36 c 2.866342,4.543808 2.179377,4.032035 8.207462,6.114367 5.254994,1.815277 3.441104,2.441005 -2.76461,0.953694 z M 70,42.622445 c 0,-0.207656 0.7875,-0.995156 1.75,-1.75 C 73.336056,39.628574 73.371426,39.663944 72.127555,41.25 70.821186,42.915748 70,43.445479 70,42.622445 Z M 57.545933,33.75 c 1.336487,-2.3375 2.435397,-5.067824 2.442022,-6.067388 0.0094,-1.417892 0.506636,-1.667959 2.262045,-1.137605 1.2375,0.37388 2.7,1.107514 3.25,1.630298 0.632147,0.600866 0.08037,0.603703 -1.5,0.0077 -2.344155,-0.88403 -2.647963,-0.607432 -4.873569,4.437089 C 57.820969,35.579049 56.384559,38 55.93441,38 c -0.450149,0 0.275037,-1.9125 1.611523,-4.25 z M 32.365664,33.0813 C 30.64178,32.030127 28.507968,29.669309 27.623859,27.835038 L 26.01639,24.5 l 2.466019,2.775786 c 1.356311,1.526682 3.715123,3.874962 5.241805,5.218399 3.353384,2.950882 2.864457,3.162178 -1.35855,0.587115 z m 35.50739,-1.366096 C 70.898059,28.053796 71.671661,24.913896 70.378819,21.544802 69.587043,19.481468 64.788827,16.978926 61.79966,17.070285 59.62376,17.136788 59.607633,17.186822 61.5,18 c 1.347314,0.578961 1.510486,0.887364 0.5,0.945028 -1.333333,0.07609 -1.333333,0.193306 0,1.054972 0.875901,0.566051 1.010425,0.975746 0.323324,0.984687 -0.647172,0.0084 -1.382471,0.802813 -1.633998,1.765313 -0.351275,1.344192 -0.484223,1.239158 -0.573325,-0.452947 C 59.918868,18.55336 57.740199,14.917012 54.775947,13.384138 53.216872,12.577909 51.470015,12.209515 50.894043,12.565485 50.31807,12.921456 48.947981,12.247913 47.8494,11.068725 L 45.851979,8.9247451 48.67599,9.6042724 C 52.258157,10.466231 58.669658,13.656478 59.491168,14.98571 59.835944,15.54357 61.476092,16 63.13594,16 67.264561,16 72,20.774813 72,24.937762 c 0,2.200625 -1.045264,4.168104 -3.626946,6.826923 L 64.746108,35.5 Z M 49,32.059017 c 0,-0.517541 0.375,-1.172746 0.833333,-1.456011 0.458334,-0.283266 0.833334,0.140176 0.833334,0.940983 C 50.666667,32.344795 50.291667,33 49.833333,33 49.375,33 49,32.576558 49,32.059017 Z M 36.232003,23 c 0,-1.925 0.205795,-2.7125 0.457323,-1.75 0.251527,0.9625 0.251527,2.5375 0,3.5 -0.251528,0.9625 -0.457323,0.175 -0.457323,-1.75 z M 47,24.467881 c 0,-0.292665 0.645346,-2.076649 1.434102,-3.964408 1.761429,-4.215693 5.851533,-5.686756 8.400534,-3.02137 1.568389,1.640002 1.542059,1.667476 -0.45217,0.47183 C 53.446301,16.193546 51.16842,17.352666 49.441427,21.485942 48.140836,24.598695 47,25.992103 47,24.467881 Z M 23.975249,21.4349 c -1.747053,-4.595098 -1.14507,-7.898019 1.986249,-10.898013 2.797556,-2.6802282 3.198901,-2.7765287 7.25,-1.7395975 L 37.5,9.894987 32.768534,9.5030969 c -3.300682,-0.2733837 -4.661471,-0.030708 -4.5,0.8025061 0.127307,0.656919 -0.339409,1.079105 -1.037146,0.938193 -2.292205,-0.462925 -3.722383,4.464684 -2.559889,8.819974 1.186421,4.444937 0.778118,5.249012 -0.69625,1.37113 z M 32.518606,18 c 0.293283,-1.970894 1.495208,-4.254838 2.751109,-5.227764 2.370299,-1.836231 7.245714,-2.365306 8.160258,-0.885543 0.604417,0.977968 -1.444415,3.03962 -2.760993,2.77827 C 40.211919,14.574233 39.215364,15.625 38.454415,17 c -0.910867,1.645894 -1.39565,1.955076 -1.41898,0.904988 -0.04455,-2.005235 3.343698,-5.166228 4.456042,-4.15717 0.456045,0.4137 0.50547,0.189682 0.109831,-0.497818 -1.82446,-3.170362 -6.857184,0.09359 -8.732629,5.663508 C 32.13877,21.081278 32.082097,20.933392 32.518606,18 Z M 44.872445,11.25 C 43.628574,9.6639444 43.663944,9.6285741 45.25,10.872445 c 0.9625,0.754844 1.75,1.542344 1.75,1.75 0,0.823034 -0.821186,0.293303 -2.127555,-1.372445 z"
       id="path833"
       inkscape:connector-curvature="0" />
    <path
       style="fill:#706e6f"
       d="m 28.389885,109.47229 c -1.619142,-2.47113 -1.563688,-2.63746 2.476947,-7.42941 C 33.426354,99.007438 35,96.13744 35,94.504852 c 0,-1.449984 0.465046,-3.505281 1.033436,-4.567327 1.096072,-2.04803 8.476268,-6.267624 10.046689,-5.74415 0.511898,0.170633 -3.158079,5.402635 -8.155504,11.626671 -9.293307,11.574334 -9.986832,13.417544 -5.696787,15.140594 l 2.272166,0.91259 -2.226947,0.0634 c -1.325806,0.0377 -2.897142,-0.95946 -3.883168,-2.46432 z M 40.865989,89.915354 C 42.717282,87.761909 43.695167,86 43.039065,86 41.552688,86 36,91.461192 36,92.923077 c 0,1.885554 1.406888,1.01594 4.865989,-3.007723 z m -8.530156,17.517426 c -0.330769,-0.86197 -0.116823,-2.05179 0.475435,-2.64405 0.76911,-0.76911 0.900382,-0.39269 0.459368,1.31722 -0.55569,2.15453 -0.447754,2.25484 1.078841,1.00261 1.481476,-1.21523 1.616535,-1.18356 1.066426,0.25 -0.796751,2.0763 -2.29792,2.11247 -3.08007,0.0742 z M 69.5,104.35075 c -2.2,-1.9613 -5.403812,-4.65121 -7.119582,-5.977586 l -3.119583,-2.411593 -6.380417,3.018426 C 46.513194,101.99218 42.330071,102.89299 43.5,101 c 0.339919,-0.55 1.603976,-1.001949 2.809017,-1.00433 1.205041,-0.0024 5.74383,-1.802382 10.086198,-4 C 60.737584,93.798051 65.200084,92 66.311882,92 c 2.239586,0 1.524244,1.260008 -0.918917,1.618588 -4.7804,0.701614 -4.55204,1.459474 2.077102,6.893272 C 72.733474,104.82618 74.90902,106 77.641772,106 c 2.062864,0 3.224978,0.40659 2.858228,1 -1.40117,2.26714 -6.996976,0.91944 -11,-2.64925 z m 8.190583,-1.71469 c -0.372051,-0.96955 -1.098541,-1.50196 -1.614422,-1.18313 -0.51588,0.31883 -1.201399,0.15345 -1.523375,-0.36752 -0.994921,-1.609817 0.869417,-1.981074 2.812701,-0.56011 1.013886,0.74137 1.654008,1.91622 1.422492,2.61076 -0.280428,0.84129 -0.646741,0.67438 -1.097396,-0.5 z m 11.204336,-3.985952 c -2.132527,-1.863395 -3.491546,-3.896537 -3.327125,-4.977501 0.204244,-1.342781 -0.165679,-1.658561 -1.394919,-1.190755 -1.275154,0.48528 -1.396407,0.357973 -0.510007,-0.535474 0.639577,-0.644662 1.646255,-0.873363 2.237063,-0.508224 1.354272,0.836986 7.413359,9.587646 6.94646,10.032226 -0.190515,0.18141 -1.968678,-1.08771 -3.951472,-2.820272 z M 89,96.5 C 88.315311,95.675 87.274202,95 86.686426,95 86.098649,95 86.491249,95.660688 87.55887,96.468197 90.067337,98.365506 90.557204,98.376316 89,96.5 Z m -17.386913,1.317021 c 0.28881,-0.467304 0.944015,-0.590747 1.456011,-0.274316 1.308382,0.808625 1.161058,1.123962 -0.525109,1.123962 -0.800807,0 -1.219712,-0.382341 -0.930902,-0.849646 z m -4,-3 c 0.28881,-0.467304 0.944015,-0.590747 1.456011,-0.274316 1.308382,0.808625 1.161058,1.123962 -0.525109,1.123962 -0.800807,0 -1.219712,-0.382341 -0.930902,-0.849646 z m 10.940465,-1.719302 c -1.810554,-0.708531 -1.778694,-0.80558 0.456329,-1.390052 1.321528,-0.345587 2.60993,-0.421189 2.863115,-0.168004 0.253186,0.253185 -0.177163,0.467228 -0.956329,0.47565 C 79.750203,92.027921 79.764921,92.201831 81,93 c 1.756776,1.135316 0.34871,1.191558 -2.446448,0.09772 z m -7.791893,-1.80498 c 1.243913,-0.239193 3.043913,-0.230112 4,0.02018 C 75.717747,91.563212 74.7,91.758916 72.5,91.747817 70.3,91.736717 69.517747,91.531932 70.761659,91.292739 Z M 30.107875,88.614828 C 28.37017,86.765126 27.92217,85.446236 28.393574,83.568013 29.049365,80.955135 33.562991,77.229658 34.697875,78.364542 35.047377,78.714044 34.781776,79 34.10765,79 c -0.674126,0 -0.978969,0.399193 -0.677429,0.887095 0.30154,0.487903 -0.185969,0.825403 -1.083354,0.75 -0.897385,-0.0754 -1.850922,0.488043 -2.11897,1.252101 -0.32604,0.929358 -0.06227,1.126472 0.79688,0.595491 0.848361,-0.524316 1.038644,-0.396321 0.560633,0.377116 -0.397984,0.643952 -1.142512,0.911923 -1.654508,0.595492 -1.947139,-1.203398 -0.829738,2.500155 1.178774,3.906972 1.160322,0.812721 1.938903,1.989997 1.730179,2.616169 -0.220299,0.660895 -1.366366,0.08802 -2.73198,-1.365608 z m 19.923335,1.420886 c 0.06495,-1.11493 4.958781,-8.486575 4.963667,-7.476844 0.0028,0.582379 -0.628925,1.925983 -1.403872,2.985786 -0.871248,1.191503 -1.092415,2.51845 -0.579498,3.476844 0.615364,1.14982 0.333725,1.549929 -1.091005,1.549929 -1.056276,0 -1.906458,-0.241072 -1.889292,-0.535715 z m 4.662643,-0.675194 c -0.351714,-0.351714 -0.395942,-1.033532 -0.09828,-1.515152 0.649946,-1.051636 7.551543,-4.03159 8.090037,-3.493096 0.208188,0.208188 -0.980185,0.94132 -2.640831,1.629182 -1.660645,0.687862 -2.776702,1.643278 -2.480127,2.123148 0.296576,0.479869 -0.232964,0.576171 -1.176754,0.214005 -1.164228,-0.446756 -1.48349,-0.282304 -0.992921,0.511454 0.776251,1.256001 0.348247,1.579825 -0.701119,0.530459 z M 79.25,86.310674 C 81.476575,85.72881 81.538923,84 79.333333,84 c -0.916666,0 -1.381095,-0.285571 -1.032064,-0.634602 0.349031,-0.349031 2.097719,-0.02856 3.885974,0.712161 3.237552,1.341037 3.240876,1.349687 0.782065,2.034921 C 81.611188,86.490968 79.825,86.793295 79,86.784319 78.012732,86.773576 78.098187,86.611675 79.25,86.310674 Z M 64.8125,83.316886 c 0.721875,-0.288871 1.584375,-0.253344 1.916667,0.07895 0.332291,0.332292 -0.258334,0.568641 -1.3125,0.52522 -1.164943,-0.04798 -1.4019,-0.284941 -0.604167,-0.604167 z m 5.45125,-1.034467 c 1.520062,-0.229855 3.770062,-0.223712 5,0.01365 1.229937,0.237362 -0.01375,0.425424 -2.76375,0.417917 -2.75,-0.0075 -3.756313,-0.201713 -2.23625,-0.431567 z M 66.657916,77.449072 C 67.264884,75.867341 69,75.455387 69,76.893011 c 0,0.491156 -0.652083,1.143239 -1.449072,1.449073 -0.968522,0.371656 -1.264668,0.07551 -0.893012,-0.893012 z M 32.679101,73.483696 C 28.053986,69.226993 27.762187,69.109715 25.493967,70.59591 23.201807,72.097791 22.95244,71.964949 17.314053,66.238341 12.149055,60.992528 3.9649546,48.624239 6.83079,50.395422 c 0.6136295,0.379244 1.8917209,2.324898 2.840203,4.323676 0.948482,1.998778 4.296604,6.262748 7.440271,9.47549 5.308661,5.425306 5.895454,5.759473 8.23874,4.691801 2.294632,-1.045504 3.026523,-0.719358 8.086489,3.603506 C 36.496422,75.104074 39,77.413284 39,77.621474 c 0,1.142423 -2.021664,-0.180996 -6.320899,-4.137778 z m 9.793907,2.559978 C 42.798081,75.517695 43.724639,75.34084 44.532025,75.650663 46.599138,76.443889 46.355548,77 43.940983,77 42.808524,77 42.147935,76.569653 42.473008,76.043674 Z M 50,75.276156 c 2.479068,-0.4477 7,-3.924973 7,-5.384048 0,-0.417595 -1.2375,-0.946729 -2.75,-1.175854 -2.246609,-0.340332 -2.073615,-0.444017 0.945059,-0.566422 3.204476,-0.129939 4.303464,-0.896713 8.277556,-5.775329 3.341076,-4.101521 4.426645,-6.201036 4.007192,-7.75 -0.533731,-1.970975 -0.491492,-1.989986 0.584496,-0.263068 0.94053,1.509513 0.771357,2.360282 -0.894813,4.5 -1.130038,1.451211 -4.442961,5.872846 -7.362052,9.825857 C 54.9361,75.28402 54.212413,75.868546 51,75.801109 48.350623,75.745493 48.107588,75.61791 50,75.276156 Z m 9,-1.017332 c 0.825,-0.320805 2.095871,-1.297779 2.824157,-2.171053 C 62.552444,71.214497 62.863386,71.0625 62.51514,71.75 61.62799,73.501395 63.494871,73.313569 65,71.5 66.022624,70.267813 65.944678,70 64.563428,70 63.638624,70 63.147935,69.569653 63.473008,69.043674 64.30851,67.691804 67,68.923728 67,70.658015 67,72.089206 61.248298,75.072909 58.782119,74.921053 57.941042,74.869263 58.015992,74.64146 59,74.258824 Z M 42.654988,72.171259 C 41.744744,71.165452 41,69.290452 41,68.004593 c 0,-2.773136 0.883898,-2.203755 1.493591,0.962129 0.236979,1.230534 0.952968,2.866422 1.591085,3.635306 1.714506,2.065854 0.498018,1.699323 -1.429688,-0.430769 z M 30.564761,67.104785 c -0.304301,-0.492369 0.09622,-1.144451 0.890055,-1.449073 0.962773,-0.36945 1.258189,-0.07139 0.887268,0.895216 -0.644606,1.679815 -1.010897,1.79396 -1.777323,0.553857 z M 17.957569,60.796114 14.674033,56.5 l 3.862984,3.716667 c 2.12464,2.044166 3.602232,3.977418 3.283535,4.296114 -0.318696,0.318696 -2.057038,-1.353804 -3.862983,-3.716667 z m 1.639784,-3.347341 c -2.027194,-3.053175 -4.121515,-6.765675 -4.654046,-8.25 -0.899788,-2.507979 -0.761295,-2.452507 1.958979,0.784653 1.60997,1.915884 2.688917,3.869004 2.397661,4.340266 -0.291256,0.471263 1.188432,2.616221 3.288196,4.766575 C 25.107634,61.67046 25.874938,63 24.844528,63 23.985775,63 21.624547,60.501948 19.597353,57.448773 Z m 27.13598,3.427139 c 0.678334,-0.683418 1.485241,-0.990671 1.793128,-0.682784 0.307888,0.307887 -0.247112,0.867048 -1.233333,1.242579 -1.425198,0.542685 -1.540062,0.427821 -0.559795,-0.559795 z M 41,60 c 0,-0.55 0.476558,-1 1.059017,-1 0.582459,0 0.780902,0.45 0.440983,1 -0.339919,0.55 -0.816476,1 -1.059017,1 C 41.198442,61 41,60.55 41,60 Z m 28.809562,-0.557141 c 0.840486,-1.639831 1.779658,-1.972469 4.629666,-1.639747 4.545328,0.530641 7.919921,-1.626617 10.521418,-6.725971 3.759713,-7.369648 3.911287,-16.990025 0.270302,-17.156088 -1.285341,-0.05862 -1.367243,-0.222765 -0.318148,-0.6376 4.03866,-1.596977 5.506937,9.993884 2.190869,17.295146 C 84.547716,56.206251 80.71988,59 75.565141,59 c -2.290827,0 -4.760224,0.5625 -5.487548,1.25 -1.087317,1.027782 -1.134966,0.884293 -0.268031,-0.807141 z M 54.5,59.33236 c 6.042994,-1.285272 8.107376,-2.880638 7.546992,-5.83236 -0.104417,-0.55 0.387294,-0.4325 1.092691,0.261111 1.996114,1.962764 -1.983258,5.32265 -6.742934,5.693231 C 54.253537,59.621209 53.4,59.566317 54.5,59.33236 Z M 45,53.309373 c 4.2002,-0.444685 8.134572,-2.282614 7.406854,-3.460087 C 52.118165,49.382179 52.546719,49 53.359196,49 54.171672,49 55.548229,48.726855 56.418213,48.393011 57.288196,48.059167 58,48.193768 58,48.692123 c 0,0.498355 -1.683767,1.514958 -3.741704,2.259118 -3.261686,1.179441 -3.486191,1.452772 -1.75,2.130603 C 53.748792,53.566148 52.048403,53.825578 48,53.769678 44.425,53.720314 43.075,53.513177 45,53.309373 Z M 36.694661,52.300017 C 35.701724,52.042628 35.062885,51.311346 35.275018,50.674947 35.487151,50.038548 35.062054,48.919196 34.330357,48.1875 33.598661,47.455804 33,46.373575 33,45.782549 c 0,-0.591027 1.103513,0.116116 2.452251,1.571428 1.348738,1.455313 3.486238,2.681549 4.75,2.72497 1.263762,0.04342 1.732445,0.306856 1.041518,0.585411 -0.690926,0.278554 -1.001869,0.918028 -0.690983,1.421052 0.585725,0.947722 -0.744518,1.021717 -3.858125,0.214607 z m 23.046663,-1.478306 c 0.682728,-0.828151 0.945228,-1.801825 0.583333,-2.16372 C 59.962762,48.296096 60.416667,48 61.333333,48 c 2.379456,0 2.058605,1.72079 -0.583333,3.128536 -1.961262,1.045051 -2.090703,1.005676 -1.008676,-0.306825 z M 44.761659,50.292739 c 1.243913,-0.239193 3.043913,-0.230112 4,0.02018 C 49.717747,50.563212 48.7,50.758916 46.5,50.747817 44.3,50.736717 43.517747,50.531932 44.761659,50.292739 Z M 62.09968,42.916667 C 62.154504,41.0375 62.574737,38.375 63.033532,37 c 0.538505,-1.613892 0.63238,-0.550563 0.264852,3 -0.651312,6.292088 -1.346533,7.983689 -1.198704,2.916667 z M 37.5,43.263322 C 33.070368,42.14556 30.913059,40.949691 31.528853,39.953314 31.940648,39.287016 32.602612,39.247073 33.339028,39.844088 33.977562,40.361751 36.525,41.487121 39,42.34491 c 4.155474,1.440211 3.108427,2.081291 -1.5,0.918412 z m -7.797346,-7.024977 c -0.685979,-3.570893 -0.299962,-3.844709 1.097196,-0.778282 0.618602,1.357683 0.743157,2.70434 0.276789,2.992571 -0.466367,0.288231 -1.084661,-0.708199 -1.373985,-2.214289 z M 56.591957,35.5 c 0.900935,-1.375 1.801661,-2.5 2.001614,-2.5 0.199953,0 -0.149033,1.125 -0.775525,2.5 -0.626492,1.375 -1.527218,2.5 -2.001614,2.5 -0.474396,0 -0.12541,-1.125 0.775525,-2.5 z M 32.28545,32.907397 c -1.768003,-1.1324 -3.899303,-3.487319 -4.736222,-5.233153 L 26.027557,24.5 l 2.368029,2.868192 c 1.302416,1.577506 3.658716,3.923823 5.236222,5.214037 3.552703,2.905695 2.920845,3.058299 -1.346358,0.325168 z m 17.257255,-0.838299 c -0.316431,-0.511996 -0.192988,-1.167201 0.274316,-1.456011 0.467305,-0.28881 0.849646,0.130095 0.849646,0.930902 0,1.686167 -0.315337,1.833491 -1.123962,0.525109 z M 60,27.5 c 0,-0.825 0.435877,-1.5 0.968615,-1.5 0.532739,0 0.709594,0.675 0.393011,1.5 C 61.045044,28.325 60.609167,29 60.393011,29 60.176855,29 60,28.325 60,27.5 Z M 64,28 C 63.098708,27.41754 62.975367,27.024514 63.690983,27.015313 64.346024,27.006891 65.160081,27.45 65.5,28 c 0.767305,1.241525 0.421123,1.241525 -1.5,0 z m 7.149832,-2.168213 c -0.233691,-4.161577 -1.165819,-5.788694 -4.221353,-7.368772 -2.846348,-1.471904 -8.415604,-2.086715 -6.32012,-0.697702 0.609598,0.404078 0.980864,1.563421 0.825036,2.576318 C 61.060193,22.767475 60,23.782324 60,21.71372 60,16.938398 55.20916,12.273248 48.602284,10.615028 47.041229,10.223228 45.954905,9.7117619 46.18823,9.4784367 46.959326,8.7073411 53.44051,10.945249 57,13.211665 c 1.925,1.225696 5.25784,2.691993 7.40631,3.258437 4.832768,1.274158 7.919961,5.121027 7.324689,9.127095 -0.427193,2.874926 -0.432774,2.877179 -0.581167,0.23459 z M 36.232003,23 c 0,-1.925 0.205795,-2.7125 0.457323,-1.75 0.251527,0.9625 0.251527,2.5375 0,3.5 -0.251528,0.9625 -0.457323,0.175 -0.457323,-1.75 z M 23.975249,21.4349 c -1.556652,-4.094305 -1.146658,-7.124098 1.358084,-10.036034 1.692108,-1.9671927 2.333334,-2.2694167 2.333334,-1.099753 0,0.8871 -0.373086,1.38233 -0.82908,1.10051 -1.811193,-1.119378 -3.245811,4.618958 -2.166088,8.664147 1.186421,4.444937 0.778118,5.249012 -0.69625,1.37113 z M 48.039142,22.25 C 47.991817,19.52961 51.288988,16 53.877555,16 c 1.032656,0 2.495156,0.747295 3.25,1.660655 1.247129,1.509024 1.179097,1.540268 -0.745089,0.34218 -2.860954,-1.781364 -5.179491,-0.693062 -6.88515,3.23183 C 48.309955,23.9669 48.071893,24.132664 48.039142,22.25 Z M 32.063386,19.184259 C 31.873609,15.244965 36.1468,11.078323 40.424314,11.031803 L 43.348628,11 41.310883,13.25 c -1.120759,1.2375 -2.535517,3.15 -3.143905,4.25 -0.714068,1.291075 -1.116939,1.491152 -1.136569,0.564451 -0.01673,-0.789552 0.948032,-2.477052 2.143905,-3.75 C 41.25953,12.09484 41.268637,12 39.396555,12 c -2.106835,0 -4.996376,2.862007 -6.397351,6.33639 -0.479837,1.189985 -0.900955,1.571526 -0.935818,0.847869 z M 30.5,9 28.5,8.1405705 h 2 c 1.1,0 2.9,0.3867433 4,0.8594295 l 2,0.8594295 h -2 c -1.1,0 -2.9,-0.3867433 -4,-0.8594295 z"
       id="path831"
       inkscape:connector-curvature="0" />
    <path
       style="fill:#514e4f"
       d="m 29.2,110.8 c -2.088752,-2.08875 -1.311228,-5.31006 2.3,-9.52897 2.179209,-2.545911 3.512002,-5.161077 3.531803,-6.929994 0.03366,-3.007095 1.200823,-4.914708 4.468197,-7.302843 1.140172,-0.833356 0.817737,-0.164961 -0.75,1.554719 -2.641414,2.897415 -3.574962,5.417069 -2,5.398014 0.678794,-0.0082 2.58778,-2.144882 7.431607,-8.317966 0.924884,-1.178694 1.894704,-1.924802 2.155154,-1.65802 0.260451,0.266783 -3.566752,5.587078 -8.504897,11.822877 -5.342186,6.746013 -8.75524,11.919483 -8.42732,12.774023 0.303119,0.78992 1.573599,1.84687 2.82329,2.3488 2.128776,0.855 2.142797,0.91659 0.222166,0.97597 C 31.3225,111.97148 29.86,111.46 29.2,110.8 Z m 42.30611,-4.79325 c -0.992127,-1.09629 -4.174989,-3.82256 -7.073028,-6.058377 L 59.16392,95.883244 54.33196,98.318411 C 48.627702,101.19319 42.394966,102.78798 43.433912,101.10693 43.810179,100.49812 45.105542,100 46.312496,100 47.51945,100 51.655392,98.482364 55.503479,96.627475 59.351566,94.772587 63.625,92.977049 65,92.637391 c 2.487313,-0.614425 2.486666,-0.611266 -0.127507,0.622525 -1.445129,0.682046 -2.692188,1.589071 -2.771243,2.01561 -0.07905,0.42654 2.54611,3.01404 5.8337,5.750004 4.733697,3.93942 6.727085,4.97447 9.58026,4.97447 2.147239,0 3.353131,0.40401 2.98479,1 -1.101032,1.78151 -7.080364,1.12117 -8.99389,-0.99325 z m 3.827223,-5.46276 c 0,-0.800808 0.382341,-1.219713 0.849646,-0.930903 0.467304,0.28881 0.590747,0.944013 0.274316,1.456013 -0.808625,1.30838 -1.123962,1.16106 -1.123962,-0.52511 z m 14.590981,-1.124554 c -1.333373,-1.41931 -2.282767,-2.65681 -2.109765,-2.75 0.173002,-0.09319 0.01335,-0.954351 -0.354785,-1.913692 -0.368133,-0.959341 -1.141709,-1.452313 -1.719057,-1.095492 -0.628103,0.388189 -0.751083,0.165554 -0.306188,-0.554302 1.002941,-1.622792 2.569282,-0.223178 5.413325,4.837114 2.649976,4.714996 2.43774,5.054276 -0.92353,1.476372 z M 77.8125,92.316886 c 0.721875,-0.288871 1.584375,-0.253344 1.916667,0.07895 0.332291,0.332292 -0.258334,0.568641 -1.3125,0.52522 -1.164943,-0.04798 -1.4019,-0.284941 -0.604167,-0.604167 z M 70.25,91.310674 c 0.9625,-0.251527 2.5375,-0.251527 3.5,0 0.9625,0.251528 0.175,0.457323 -1.75,0.457323 -1.925,0 -2.7125,-0.205795 -1.75,-0.457323 z M 31.5,90 C 31.160081,89.45 31.358524,89 31.940983,89 32.523442,89 33,89.45 33,90 33,90.55 32.801558,91 32.559017,91 32.316476,91 31.839919,90.55 31.5,90 Z M 50.22894,89.81318 C 50.727219,88.318343 53,87.495286 53,88.809678 c 0,0.536989 -0.712602,1.249795 -1.58356,1.584013 -0.973914,0.373726 -1.431083,0.150239 -1.1875,-0.580511 z M 28.085953,85.44113 c -0.04727,-1.132379 0.622418,-2.932379 1.488204,-4 0.865787,-1.067622 1.267441,-1.343376 0.892565,-0.612787 -0.374876,0.730588 -1.044568,2.530588 -1.488205,4 -0.647259,2.14385 -0.823592,2.264911 -0.892564,0.612787 z M 53.080288,85 C 54.5381,81.938968 55,81.371661 55,82.642204 55,83.178749 54.300175,84.491249 53.444834,85.55887 51.978456,87.389176 51.957643,87.357268 53.080288,85 Z M 79,86.361144 c 0.825,-0.363568 1.783912,-1.095907 2.130915,-1.627422 0.398976,-0.611121 1.318035,-0.567177 2.5,0.119536 1.400552,0.81371 1.493072,1.09697 0.369085,1.129988 -0.825,0.02424 -2.625,0.267908 -4,0.541497 -1.375,0.273588 -1.825,0.199969 -1,-0.163599 z M 60,85 c 0.825,-0.533156 1.95,-0.969374 2.5,-0.969374 0.55,0 0.325,0.436218 -0.5,0.969374 -0.825,0.533156 -1.95,0.969374 -2.5,0.969374 -0.55,0 -0.325,-0.436218 0.5,-0.969374 z m 9.75,-2.705733 c 1.2375,-0.238353 3.2625,-0.238353 4.5,0 1.2375,0.238353 0.225,0.433369 -2.25,0.433369 -2.475,0 -3.4875,-0.195016 -2.25,-0.433369 z M 36.833333,77.248804 C 36.65,76.835647 34.534756,74.834832 32.132791,72.80255 28.079757,69.373312 27.606287,69.211865 25.551295,70.558347 23.447653,71.936706 23.011175,71.671686 16.816219,65.254602 11.285434,59.525502 4.8182474,50 6.4593523,50 c 0.275,0 1.4461415,1.854591 2.6025367,4.121312 1.156395,2.266722 4.716197,6.808963 7.910671,10.093869 5.238264,5.386552 6.021705,5.858256 7.984845,4.807615 1.731738,-0.926798 2.622957,-0.855675 4.359653,0.347919 4.327229,2.99893 10.157837,8.555 9.016275,8.591738 -0.641666,0.02065 -1.316666,-0.300491 -1.5,-0.713649 z m 17.090899,-3.10723 c 0.54703,-1.022134 3.074591,-4.059634 5.616804,-6.75 L 64.163241,62.5 59.58162,68.341668 C 57.061729,71.554586 55,74.592086 55,75.091668 55,75.591251 54.534167,76 53.964816,76 c -0.699019,0 -0.712199,-0.603503 -0.04058,-1.858426 z m -11.42978,-2.147705 c -0.998538,-1.103372 -1.630783,-2.184298 -1.404988,-2.402059 0.225795,-0.217761 1.219044,0.684998 2.207221,2.006131 2.182386,2.917718 1.696826,3.157357 -0.802233,0.395928 z M 61,73.059017 c 0,-0.517541 0.519529,-1.262069 1.154508,-1.654509 0.768166,-0.474752 0.88059,-0.270314 0.335956,0.610922 -0.602038,0.974118 -0.356764,1.147242 0.927279,0.654509 C 64.37795,72.301472 65.351771,72 65.581787,72 65.811804,72 66,71.55 66,71 c 0,-0.55 -0.701558,-1 -1.559017,-1 -0.875705,0 -1.26214,-0.480356 -0.881676,-1.095961 0.457849,-0.740814 1.206088,-0.558984 2.309017,0.561118 1.509843,1.533349 1.486737,1.764517 -0.309454,3.095961 C 63.349148,74.199097 61,74.45566 61,73.059017 Z m -8.1875,-4.742131 c 0.721875,-0.288871 1.584375,-0.253344 1.916667,0.07895 0.332291,0.332292 -0.258334,0.568641 -1.3125,0.52522 -1.164943,-0.04798 -1.4019,-0.284941 -0.604167,-0.604167 z M 30,66.606989 c 0,-0.216156 0.698372,-0.661002 1.551938,-0.988546 0.889925,-0.341496 1.291322,-0.173849 0.940983,0.393011 C 31.905663,66.961658 30,67.416902 30,66.606989 Z M 17.957569,60.796114 14.674033,56.5 l 3.862984,3.716667 c 2.12464,2.044166 3.602232,3.977418 3.283535,4.296114 -0.318696,0.318696 -2.057038,-1.353804 -3.862983,-3.716667 z m 3.957853,-0.07754 C 19.827392,57.795114 16.461298,52.363326 17.1322,53 c 3.961532,3.759424 8.804558,9.992746 7.74516,9.968575 -0.757548,-0.01728 -2.09042,-1.029784 -2.961938,-2.250001 z M 65.5,60 c 0.995486,-1.1 2.034975,-2 2.309975,-2 0.275,0 -0.314489,0.9 -1.309975,2 -0.995486,1.1 -2.034975,2 -2.309975,2 -0.275,0 0.314489,-0.9 1.309975,-2 z m -8.099968,-1.477633 c 2.145018,-0.764417 4.25805,-1.969133 4.695627,-2.677147 0.437577,-0.708015 1.095814,-0.987081 1.462748,-0.620147 0.931211,0.931211 -5.62315,4.77619 -8.058407,4.727296 -1.154544,-0.02318 -0.351347,-0.627682 1.900032,-1.430002 z M 71.629163,58.20899 c -0.268879,-0.435056 1.05783,-0.610442 2.948242,-0.389747 6.501068,0.758963 11.519553,-5.287809 13.309163,-16.036209 C 88.734684,36.689251 88.770182,36.64329 88.87752,40.5 89.048494,46.643165 87.126681,52.073319 83.496924,55.703076 80.855521,58.344479 79.396539,59 76.159017,59 73.936476,59 71.898042,58.644045 71.629163,58.20899 Z M 43.113166,53.553501 C 43.88154,52.785126 51.909958,52.576625 52.639432,53.306099 53.021078,53.687745 50.933333,54 48,54 45.066667,54 42.867591,53.799075 43.113166,53.553501 Z m -6.384198,-1.64537 C 35.7549,51.341052 35.218957,50.454736 35.537985,49.93854 35.857012,49.422343 35.69396,49 35.175648,49 c -0.518312,0 -1.197554,-1.0125 -1.509427,-2.25 -0.509598,-2.022064 -0.361007,-1.971411 1.466775,0.5 1.118599,1.5125 2.821284,2.75 3.783744,2.75 0.96246,0 1.749927,0.675 1.749927,1.5 0,1.732928 -1.410911,1.879165 -3.937699,0.408131 z M 15.144264,49.25 C 14.053063,46.699956 14.077747,46.641142 15.483749,48.44113 16.317687,49.508751 17,50.746251 17,51.19113 17,52.711037 16.321668,52.00149 15.144264,49.25 Z m 37.498598,1.238305 C 53.145441,49.178603 58,47.756917 58,48.919434 c 0,0.35315 -1.315944,1.138804 -2.924321,1.745898 -2.310602,0.872156 -2.82117,0.835003 -2.432817,-0.177027 z M 46.8125,50.316886 c 0.721875,-0.288871 1.584375,-0.253344 1.916667,0.07895 0.332291,0.332292 -0.258334,0.568641 -1.3125,0.52522 -1.164943,-0.04798 -1.4019,-0.284941 -0.604167,-0.604167 z M 61,48.940983 c 0,-0.582459 0.45,-0.780902 1,-0.440983 0.55,0.339919 1,0.816476 1,1.059017 C 63,49.801558 62.55,50 62,50 61.45,50 61,49.523442 61,48.940983 Z M 62.157895,43 c 0,-1.375 0.226973,-1.9375 0.504386,-1.25 0.277412,0.6875 0.277412,1.8125 0,2.5 -0.277413,0.6875 -0.504386,0.125 -0.504386,-1.25 z M 40.8125,43.316886 c 0.721875,-0.288871 1.584375,-0.253344 1.916667,0.07895 0.332291,0.332292 -0.258334,0.568641 -1.3125,0.52522 -1.164943,-0.04798 -1.4019,-0.284941 -0.604167,-0.604167 z M 33,41.822543 c -1.375,-0.577877 -2.016066,-1.235664 -1.424591,-1.46175 0.591474,-0.226086 2.616474,0.257632 4.5,1.074929 2.285131,0.991561 2.759134,1.477928 1.424591,1.46175 -1.1,-0.01333 -3.125,-0.497053 -4.5,-1.074929 z M 31.732135,32.463949 C 29.679461,31.069121 28,29.40993 28,28.776858 c 0,-0.633072 1.4625,0.167163 3.25,1.778301 1.7875,1.611138 3.6775,3.270329 4.2,3.687091 2.178858,1.737926 -0.259948,0.571415 -3.717865,-1.778301 z M 64,28 C 63.098708,27.41754 62.975367,27.024514 63.690983,27.015313 64.346024,27.006891 65.160081,27.45 65.5,28 c 0.767305,1.241525 0.421123,1.241525 -1.5,0 z m 7.157895,-3 c 0,-1.375 0.226973,-1.9375 0.504386,-1.25 0.277412,0.6875 0.277412,1.8125 0,2.5 -0.277413,0.6875 -0.504386,0.125 -0.504386,-1.25 z m -35,-2 c 0,-1.375 0.226973,-1.9375 0.504386,-1.25 0.277412,0.6875 0.277412,1.8125 0,2.5 -0.277413,0.6875 -0.504386,0.125 -0.504386,-1.25 z m 11.845843,-1.061439 c -0.0087,-3.63943 6.767186,-7.736265 8.406983,-5.083018 0.290815,0.470549 -0.559973,0.64742 -1.890639,0.393047 -1.916701,-0.366401 -2.844632,0.235 -4.466,2.894457 -1.125633,1.846324 -2.048288,2.654306 -2.050344,1.795514 z m 11.453059,-3.167079 c -0.561155,-1.893504 -2.361844,-4.16779 -4.35468,-5.5 -3.892154,-2.601901 -3.396371,-2.992127 0.947543,-0.745802 1.622687,0.839124 2.95034,1.964124 2.95034,2.5 0,0.535876 1.2375,0.981211 2.75,0.989633 1.5125,0.0084 3.425,0.445668 4.25,0.971658 1.035914,0.660462 0.376077,0.775828 -2.132701,0.37288 -3.484322,-0.559634 -3.612309,-0.476785 -3.133423,2.028342 0.699538,3.659396 -0.128296,3.259629 -1.277079,-0.616711 z M 68.872445,19.25 C 67.628574,17.663944 67.663944,17.628574 69.25,18.872445 70.915748,20.178814 71.445479,21 70.622445,21 c -0.207656,0 -0.995156,-0.7875 -1.75,-1.75 z M 23.114999,17.305764 c -0.07434,-2.064908 0.680493,-4.026771 2.135001,-5.54901 1.2375,-1.295125 1.616422,-1.543745 0.842049,-0.552489 -0.774372,0.991256 -1.735123,3.48831 -2.135,5.549009 -0.723896,3.73047 -0.72755,3.732867 -0.84205,0.55249 z m 8.948387,1.5 c -0.03486,-0.93183 0.949114,-2.753884 2.186614,-4.04901 1.2375,-1.295125 1.711193,-1.648465 1.05265,-0.7852 -0.658542,0.863264 -1.642519,2.685319 -2.186614,4.049009 -0.657839,1.648773 -1.010499,1.911832 -1.05265,0.785201 z m 7.357102,-4.717905 c 1.64329,-1.815814 1.638504,-1.93591 -0.09501,-2.383998 -1.144285,-0.295781 -0.734245,-0.515145 1.098838,-0.58786 L 43.348628,11 41,13.5 c -2.727022,2.902781 -4.155684,3.434498 -1.579512,0.587859 z M 29.75,8.3377193 c 0.6875,-0.2774123 1.8125,-0.2774123 2.5,0 0.6875,0.2774123 0.125,0.504386 -1.25,0.504386 -1.375,0 -1.9375,-0.2269737 -1.25,-0.504386 z"
       id="path829"
       inkscape:connector-curvature="0" />
    <path
       style="fill:#2b2829"
       d="m 29.75,110.9199 c -2.768806,-1.61268 -2.06503,-4.76607 2.200824,-9.86117 2.894651,-3.457338 3.824819,-5.365747 3.479475,-7.138776 -0.391669,-2.010866 -0.32778,-2.092472 0.377934,-0.482735 0.753901,1.71965 1.329989,1.326567 5.129459,-3.5 2.354096,-2.990471 4.738252,-5.606252 5.298125,-5.812847 C 46.79569,83.917777 43.14667,88.863923 38.126884,95.115808 33.107098,101.36769 29,107.02371 29,107.68473 c 0,0.66102 1.000128,1.90238 2.222506,2.75857 2.454441,1.71915 1.301515,2.09232 -1.472506,0.4766 z M 67.159926,102 c -3.824701,-3.3 -7.562835,-6.006891 -8.306964,-6.015313 -1.073795,-0.01215 -1.055333,-0.203624 0.08948,-0.927951 0.956714,-0.605318 1.798563,-0.450542 2.5,0.45963 0.581658,0.754748 3.904681,3.629152 7.384496,6.387564 5.424384,4.29985 6.766098,4.92746 9.405491,4.39958 2.19367,-0.43873 2.87318,-0.2834 2.364047,0.54039 -1.764549,2.8551 -6.48622,1.15293 -13.436548,-4.8439 z m -21.890894,-1.69299 c 0.972967,-0.25354 2.322967,-0.23687 3,0.037 0.677032,0.27393 -0.119032,0.48137 -1.769032,0.46099 -1.65,-0.0204 -2.203936,-0.2445 -1.230968,-0.49804 z m 4.814301,-0.679834 C 51.112379,98.706411 57,96.000769 57,96.44864 57,97.024621 51.456179,100 50.382993,100 c -0.393979,0 -0.528826,-0.167771 -0.29966,-0.372824 z M 89.5,99 c -0.339919,-0.55 -0.296732,-1 0.09597,-1 0.392702,0 -0.14324,-1.004745 -1.190983,-2.232767 -1.669882,-1.957207 -1.682272,-2.05992 -0.100392,-0.832244 C 90.624475,96.735415 92.422477,100 91.094201,100 90.557309,100 89.839919,99.55 89.5,99 Z M 71.8125,91.316886 c 0.721875,-0.288871 1.584375,-0.253344 1.916667,0.07895 0.332291,0.332292 -0.258334,0.568641 -1.3125,0.52522 -1.164943,-0.04798 -1.4019,-0.284941 -0.604167,-0.604167 z M 36.564293,76.293128 c -0.542685,-1.425198 -0.427821,-1.540062 0.559795,-0.559795 0.683418,0.678334 0.990671,1.485241 0.682784,1.793128 -0.307887,0.307888 -0.867048,-0.247112 -1.242579,-1.233333 z M 31.404988,71.75 29.5,69.5 31.75,71.404988 C 33.864445,73.195206 34.455241,74 33.654988,74 c -0.189757,0 -1.202257,-1.0125 -2.25,-2.25 z M 56.5,71 c 0.995486,-1.1 2.034975,-2 2.309975,-2 0.275,0 -0.314489,0.9 -1.309975,2 -0.995486,1.1 -2.034975,2 -2.309975,2 -0.275,0 0.314489,-0.9 1.309975,-2 z m 8.928571,0 c 0,-1.295238 0.338096,-1.633333 0.985715,-0.985714 0.647619,0.647619 0.647619,1.323809 0,1.971428 C 65.766667,72.633333 65.428571,72.295238 65.428571,71 Z M 16.96584,65.25 11.5,59.5 l 5.765326,5.480976 c 5.113413,4.861214 5.988209,5.341783 7.736431,4.25 1.084108,-0.677037 2.314711,-1.216664 2.734674,-1.199173 C 28.910082,68.080687 24.767724,71 23.52471,71 22.923543,71 19.972052,68.4125 16.96584,65.25 Z M 60,66.622445 c 0,-0.207656 0.7875,-0.995156 1.75,-1.75 C 63.336056,63.628574 63.371426,63.663944 62.127555,65.25 60.821186,66.915748 60,67.445479 60,66.622445 Z M 19.872445,63.25 C 18.628574,61.663944 18.663944,61.628574 20.25,62.872445 21.915748,64.178814 22.445479,65 21.622445,65 c -0.207656,0 -0.995156,-0.7875 -1.75,-1.75 z m 3,-2 C 21.628574,59.663944 21.663944,59.628574 23.25,60.872445 c 0.9625,0.754844 1.75,1.542344 1.75,1.75 0,0.823034 -0.821186,0.293303 -2.127555,-1.372445 z M 75.714016,58.062386 C 82.779977,56.90997 86.442745,51.974231 88.004815,41.5 c 0.726179,-4.86928 0.747791,-4.895424 0.826659,-1 0.210646,10.404155 -5.946962,18.645256 -13.729357,18.374833 L 71.5,58.749667 Z M 8,54 C 7.4112979,52.9 7.1546325,52 7.4296325,52 7.7046325,52 8.4112979,52.9 9,54 9.5887021,55.1 9.8453675,56 9.5703675,56 9.2953675,56 8.5887021,55.1 8,54 Z m 41.5,-1 c 0.339919,-0.55 0.816476,-1 1.059017,-1 C 50.801558,52 51,52.45 51,53 51,53.55 50.523442,54 49.940983,54 49.358524,54 49.160081,53.55 49.5,53 Z M 36.728968,51.908131 C 35.7549,51.341052 35.18166,50.515086 35.4551,50.072649 c 0.807771,-1.307 5.211567,-0.0293 5.211567,1.512068 0,1.654222 -1.447557,1.773114 -3.937699,0.323414 z M 54.8125,49.316886 c 0.721875,-0.288871 1.584375,-0.253344 1.916667,0.07895 0.332291,0.332292 -0.258334,0.568641 -1.3125,0.52522 -1.164943,-0.04798 -1.4019,-0.284941 -0.604167,-0.604167 z M 34.5,42.286934 C 33.4,42.022349 32.0725,41.39955 31.55,40.902935 30.042681,39.470292 33.187518,39.89224 36,41.5 c 2.532242,1.44756 2.128068,1.659599 -1.5,0.786934 z M 29.860784,31.08608 c -1.298431,-1.052657 -2.100058,-2.175882 -1.781394,-2.496057 0.318665,-0.320175 1.634606,0.541089 2.924314,1.91392 2.783224,2.962606 2.175287,3.272253 -1.14292,0.582137 z M 50.404988,18.25 c 1.047743,-1.2375 2.622743,-2.214474 3.5,-2.171053 1.353787,0.06701 1.368156,0.162361 0.09501,0.630488 -0.825,0.303347 -2.4,1.280321 -3.5,2.171053 -1.982966,1.605719 -1.983775,1.600349 -0.09501,-0.630488 z M 23.194949,16.5 c 0.02038,-1.65 0.244498,-2.203936 0.498042,-1.230968 0.253543,0.972967 0.236869,2.322967 -0.03705,3 C 23.382014,18.946064 23.174569,18.15 23.194949,16.5 Z M 56.813774,14.756281 C 55.33635,13.240326 54.479106,12 54.908787,12 c 0.429681,0 1.572762,0.874624 2.54018,1.943609 0.967418,1.068985 2.949662,2.088854 4.404987,2.266377 L 64.5,16.532754 62,17.022658 c -1.819813,0.356613 -3.230855,-0.260011 -5.186226,-2.266377 z M 25.5,11 c 0.995486,-1.1 2.034975,-2 2.309975,-2 0.275,0 -0.314489,0.9 -1.309975,2 -0.995486,1.1 -2.034975,2 -2.309975,2 -0.275,0 0.314489,-0.9 1.309975,-2 z"
       id="path827"
       inkscape:connector-curvature="0" />
  </g>
</svg>
