<?xml version="1.0" encoding="UTF-8" standalone="no"?>
<!-- Created with Inkscape (http://www.inkscape.org/) -->

<svg
   xmlns:dc="http://purl.org/dc/elements/1.1/"
   xmlns:cc="http://creativecommons.org/ns#"
   xmlns:rdf="http://www.w3.org/1999/02/22-rdf-syntax-ns#"
   xmlns:svg="http://www.w3.org/2000/svg"
   xmlns="http://www.w3.org/2000/svg"
   xmlns:sodipodi="http://sodipodi.sourceforge.net/DTD/sodipodi-0.dtd"
   xmlns:inkscape="http://www.inkscape.org/namespaces/inkscape"
   version="1.1"
   id="svg815"
   width="103.22581"
   height="103.22581"
   viewBox="0 0 103.22581 103.22581"
   sodipodi:docname="google.svg"
   inkscape:version="0.92.3 (2405546, 2018-03-11)">
  <metadata
     id="metadata821">
    <rdf:RDF>
      <cc:Work
         rdf:about="">
        <dc:format>image/svg+xml</dc:format>
        <dc:type
           rdf:resource="http://purl.org/dc/dcmitype/StillImage" />
        <dc:title></dc:title>
      </cc:Work>
    </rdf:RDF>
  </metadata>
  <defs
     id="defs819" />
  <sodipodi:namedview
     pagecolor="#ffffff"
     bordercolor="#666666"
     borderopacity="1"
     objecttolerance="10"
     gridtolerance="10"
     guidetolerance="10"
     inkscape:pageopacity="0"
     inkscape:pageshadow="2"
     inkscape:window-width="1280"
     inkscape:window-height="657"
     id="namedview817"
     showgrid="false"
     inkscape:zoom="4.746875"
     inkscape:cx="46.116552"
     inkscape:cy="51.612904"
     inkscape:window-x="-8"
     inkscape:window-y="-8"
     inkscape:window-maximized="1"
     inkscape:current-layer="svg815" />
  <g
     id="g1373"
     transform="translate(0.42132933,-0.63199474)">
    <path
       style="fill:#eba5a3;stroke-width:1.03225815"
       d="M 33.969715,94.637871 C 14.27692,89.585311 0.52011748,71.9045 0.44869976,51.555276 0.38463806,33.302021 10.766361,17.708164 27.984468,10.195199 34.869084,7.19116 48.720834,6.4123617 56.220214,8.6076778 c 5.44541,1.5940512 17.541468,8.3862452 17.442736,9.7944672 -0.02679,0.382047 -2.757491,3.641765 -6.068233,7.243819 l -6.019533,6.549189 -4.31648,-2.856511 c -11.410682,-7.551233 -28.646082,-2.561951 -35.4297,10.256142 -3.497182,6.608158 -3.258647,18.14787 0.507561,24.554486 3.793898,6.453717 8.052232,9.824854 14.939678,11.827089 10.851457,3.154604 21.30656,0.08125 26.25205,-7.716974 4.610403,-7.269851 4.511883,-7.356157 -8.397287,-7.356157 H 43.776167 v -9.290323 -9.290323 h 21.67742 21.67742 v 8.041189 c 0,20.118593 -9.951124,36.711674 -25.507018,42.531879 -7.316517,2.73746 -20.530557,3.569945 -27.654274,1.742221 z M 86.929501,35.35484 86.614878,30.451614 81.711652,30.136991 C 76.871871,29.826438 76.808426,29.77635 76.808426,26.266023 v -3.556345 h 5.16129 5.161291 v -5.226692 -5.226693 l 3.354839,0.323467 c 3.216763,0.310153 3.367787,0.525271 3.669461,5.226692 l 0.314623,4.903226 h 4.588603 c 4.555947,0 4.588607,0.02571 4.588607,3.612904 0,3.593787 -0.0246,3.612903 -4.645165,3.612903 h -4.645162 v 5.161291 5.16129 h -3.556344 c -3.510327,0 -3.560416,-0.06344 -3.870968,-4.903226 z"
       id="path1387"
       inkscape:connector-curvature="0" />
    <path
       style="fill:#e6615d;stroke-width:1.03225815"
       d="M 36.55036,94.829048 C 14.096904,91.152569 -2.7152412,67.476027 1.1411926,44.962323 5.9232768,17.044711 33.581499,0.61055432 59.477662,10.299551 c 3.167331,1.18505 7.728666,3.581612 10.136301,5.325694 l 4.377516,3.171057 -6.336554,6.336555 c -5.531316,5.531316 -6.565724,6.170864 -8.139915,5.03271 -4.25333,-3.075195 -8.816672,-4.359114 -15.493288,-4.359114 -6.114166,0 -7.786845,0.443909 -12.641247,3.354838 -7.897532,4.735734 -11.678739,11.105762 -12.213864,20.576142 -0.510948,9.042528 1.445837,14.440047 7.324503,20.203623 10.824777,10.612857 29.506543,9.959621 37.061024,-1.295892 1.52423,-2.270968 3.071423,-5.174194 3.438207,-6.451613 C 67.654526,59.880372 67.60889,59.87097 55.716697,59.87097 H 43.776167 V 51.612905 43.35484 h 21.67742 21.67742 v 6.052656 c 0,9.154295 -1.677964,16.390058 -5.705001,24.601263 C 75.622547,85.842124 66.041658,92.65396 52.034231,94.905771 44.504816,96.116187 44.408427,96.11571 36.55036,94.829048 Z M 87.131007,35.096776 v -5.161291 h -5.226693 -5.226693 l 0.323467,-3.354839 c 0.310154,-3.216763 0.525271,-3.367787 5.226693,-3.669462 l 4.903226,-0.314623 v -4.588603 c 0,-4.410275 0.12035,-4.588603 3.096774,-4.588603 2.982079,0 3.096774,0.172044 3.096774,4.645162 v 4.645161 h 5.161291 5.161294 v 3.612904 3.612903 h -5.161294 -5.161291 v 5.161291 c 0,5.046595 -0.06882,5.16129 -3.096774,5.16129 -3.027957,0 -3.096774,-0.114695 -3.096774,-5.16129 z"
       id="path1385"
       inkscape:connector-curvature="0" />
    <path
       style="fill:#f04337;stroke-width:1.03225815"
       d="M 31.905198,93.52037 C 11.212773,86.95904 -2.1862456,65.369682 1.455414,44.457727 4.7224291,25.69714 19.289082,11.262923 37.96578,8.2793065 49.203483,6.4840748 62.490343,9.9009819 70.916367,16.753024 l 2.882134,2.343751 -6.121312,6.04678 -6.121311,6.04678 -4.502758,-2.570714 C 33.038006,14.908916 7.7148138,43.833397 23.579129,66.85405 c 4.84633,7.032493 11.995458,10.565308 21.380325,10.565308 7.880071,0 12.814695,-1.605338 16.308801,-5.305601 2.451012,-2.595624 6.249848,-9.384708 6.249848,-11.169406 0,-0.680778 -4.341963,-1.073381 -11.870968,-1.073381 H 43.776167 v -8.279007 -8.279009 l 21.419355,0.279008 21.419356,0.279007 -0.0039,7.225807 c -0.01141,20.884091 -12.5828,39.132325 -29.450827,42.749868 -6.907069,1.481302 -20.091569,1.310968 -25.25493,-0.326274 z M 87.131007,34.637205 v -4.588603 l -4.903226,-0.314623 c -4.49023,-0.288123 -4.930738,-0.553726 -5.229855,-3.153333 -0.31829,-2.766221 -0.193082,-2.83871 4.903226,-2.83871 h 5.229855 v -5.16129 c 0,-5.046595 0.06882,-5.161291 3.096774,-5.161291 3.027957,0 3.096774,0.114696 3.096774,5.161291 v 5.16129 h 5.161291 c 5.046594,0 5.161294,0.06882 5.161294,3.096775 0,3.027956 -0.1147,3.096774 -5.161294,3.096774 h -5.161291 v 4.645161 c 0,4.473119 -0.114695,4.645162 -3.096774,4.645162 -2.976424,0 -3.096774,-0.178328 -3.096774,-4.588603 z"
       id="path1383"
       inkscape:connector-curvature="0" />
    <path
       style="fill:#ef3c30;stroke-width:1.03225815"
       d="M 31.684335,93.533609 C 11.977789,87.087554 -1.6359202,65.229243 1.5635071,45.171301 3.7953473,31.179382 13.004922,18.77785 26.011128,12.250351 32.618838,8.9341008 33.45979,8.774194 44.292296,8.774194 c 10.572472,0 11.817146,0.2208092 18.064516,3.204703 3.690323,1.762587 7.773403,4.085168 9.073513,5.161291 l 2.363836,1.956587 -6.119141,6.04678 -6.119142,6.04678 -4.956095,-2.904464 c -9.698197,-5.683523 -23.828205,-3.208426 -31.488029,5.515631 -4.704149,5.35773 -6.448669,10.160355 -6.469871,17.811403 -0.02845,10.264515 4.718179,18.18426 13.913381,23.214495 4.690622,2.566005 6.655168,3.023532 12.76929,2.973868 9.419141,-0.07651 14.958896,-2.797594 19.15005,-9.40636 5.214059,-8.221717 4.901076,-8.523938 -8.827469,-8.523938 H 43.776167 V 51.612905 43.35484 h 21.05085 c 23.333093,0 22.320964,-0.320276 22.286066,7.052168 -0.02876,6.076457 -2.855197,17.760082 -5.706016,23.586945 C 77.99859,80.960628 70.716447,88.082282 63.466346,91.539282 58.595665,93.861724 56.046649,94.33495 46.872941,94.619855 39.61018,94.845412 34.599097,94.487033 31.684335,93.533609 Z M 87.131007,34.637205 v -4.588603 l -4.903226,-0.314623 c -4.49023,-0.288123 -4.930738,-0.553726 -5.229855,-3.153333 -0.31829,-2.766221 -0.193082,-2.83871 4.903226,-2.83871 h 5.229855 v -5.16129 c 0,-5.046595 0.06882,-5.161291 3.096774,-5.161291 3.027957,0 3.096774,0.114696 3.096774,5.161291 v 5.16129 h 5.161291 c 5.046594,0 5.161294,0.06882 5.161294,3.096775 0,3.027956 -0.1147,3.096774 -5.161294,3.096774 h -5.161291 v 4.645161 c 0,4.473119 -0.114695,4.645162 -3.096774,4.645162 -2.976424,0 -3.096774,-0.178328 -3.096774,-4.588603 z"
       id="path1381"
       inkscape:connector-curvature="0" />
    <path
       style="fill:#d60a0a;stroke-width:1.03225815"
       d="M 33.179487,93.908518 C 28.11995,92.6333 22.161778,89.562537 18.075388,86.124067 4.9635503,75.091182 0.61122944,52.516092 8.3922475,35.8985 12.894031,26.28423 19.640441,19.398347 29.176352,14.684712 c 7.49608,-3.70534 8.179057,-3.846002 18.674101,-3.846002 9.824912,0 11.524828,0.291618 17.330089,2.972956 3.540148,1.635126 6.892828,3.522637 7.450399,4.194469 0.716861,0.863765 -0.733913,2.950955 -4.953593,7.126605 l -5.967359,5.905092 -5.090402,-2.84508 c -4.228144,-2.363155 -6.336884,-2.84508 -12.449079,-2.84508 -6.371575,0 -8.029156,0.414525 -12.356993,3.090221 -13.790709,8.526141 -17.692938,26.056534 -8.59562,38.615015 3.367428,4.6486 11.589683,10.3587 17.868122,12.408857 10.106976,3.300323 22.676015,-1.603467 27.340119,-10.666705 3.966432,-7.707529 3.076366,-8.346529 -12.115187,-8.697797 L 43.776167,59.807426 V 51.581133 43.35484 h 21.114516 21.114516 l 0.658422,3.509688 c 0.810084,4.318122 -1.016094,16.647974 -3.341209,22.558922 -4.130999,10.501898 -10.1922,17.141962 -19.817665,21.71031 -5.66816,2.69017 -7.987131,3.173451 -16.516129,3.442015 -5.457171,0.171838 -11.67128,-0.128427 -13.809131,-0.667257 z M 86.929501,34.322582 86.614878,29.419356 82.227781,29.101939 c -3.877221,-0.280527 -4.387097,-0.610446 -4.387097,-2.83871 0,-2.300027 0.407654,-2.521293 4.645161,-2.521293 h 4.645162 v -5.16129 c 0,-5.046595 0.06882,-5.161291 3.096774,-5.161291 3.027957,0 3.096774,0.114696 3.096774,5.161291 v 5.16129 h 5.161291 c 5.046594,0 5.161294,0.06882 5.161294,3.096775 0,3.027956 -0.1147,3.096774 -5.161294,3.096774 h -5.161291 v 4.645161 c 0,4.453915 -0.125169,4.645162 -3.040215,4.645162 -2.894595,0 -3.055286,-0.234856 -3.354839,-4.903226 z"
       id="path1379"
       inkscape:connector-curvature="0" />
    <path
       style="fill:#c00505;stroke-width:1.03225815"
       d="m 66.493949,82.072776 -4.544925,-4.63094 2.670972,-2.849949 c 1.469035,-1.567471 3.632441,-4.769044 4.80757,-7.114604 2.048853,-4.089517 2.060777,-4.333269 0.290351,-5.935484 C 68.238665,60.203096 65.476833,59.87097 55.823918,59.87097 H 43.776167 V 51.612905 43.35484 h 21.070557 21.070558 l 0.641443,3.870968 c 1.67938,10.134695 -4.644422,28.937027 -12.193194,36.253585 l -3.326658,3.224324 z m 20.637058,-47.69371 c 0,-3.853378 0.568498,-5.440126 2.773771,-7.741936 2.35754,-2.460741 3.596745,-2.895194 8.258065,-2.895194 5.161737,0 5.484297,0.151779 5.484297,2.580646 0,2.408602 -0.34409,2.580645 -5.161294,2.580645 h -5.161291 v 5.16129 c 0,5.046596 -0.06882,5.161291 -3.096774,5.161291 -3.00116,0 -3.096774,-0.149645 -3.096774,-4.846742 z M 17.086271,32.667762 12.672215,28.170166 17.520041,23.32234 c 9.67793,-9.677931 24.363008,-14.4662396 37.143689,-12.111307 6.806468,1.254141 17.238627,5.277227 18.350874,7.07688 0.329726,0.533508 -2.078924,3.620495 -5.352556,6.859967 l -5.952059,5.889952 -5.095943,-2.873755 c -4.279735,-2.413468 -6.25329,-2.863279 -12.32175,-2.808358 -8.341761,0.0755 -12.360555,1.756843 -18.621791,7.790823 l -4.170176,4.018817 z"
       id="path1377"
       inkscape:connector-curvature="0" />
    <path
       style="fill:#a80404;stroke-width:1.03225815"
       d="M 43.776167,51.646713 V 43.35484 h 11.914389 11.91439 l -0.301487,8.000001 -0.301485,8 -11.612904,0.291872 -11.612903,0.291872 z M 58.357189,29.036854 55.905954,27.15187 61.58925,21.28406 c 5.369382,-5.543705 5.834095,-5.799102 8.413451,-4.623869 1.501584,0.684168 2.601996,1.563812 2.445358,1.954764 -0.528257,1.318483 -10.387272,12.353001 -11.016341,12.329835 -0.342811,-0.01262 -1.726349,-0.871196 -3.074529,-1.907936 z"
       id="path1375"
       inkscape:connector-curvature="0" />
  </g>
</svg>
