<?xml version="1.0" encoding="UTF-8" standalone="no"?>
<!-- Created with Inkscape (http://www.inkscape.org/) -->

<svg
   xmlns:dc="http://purl.org/dc/elements/1.1/"
   xmlns:cc="http://creativecommons.org/ns#"
   xmlns:rdf="http://www.w3.org/1999/02/22-rdf-syntax-ns#"
   xmlns:svg="http://www.w3.org/2000/svg"
   xmlns="http://www.w3.org/2000/svg"
   xmlns:sodipodi="http://sodipodi.sourceforge.net/DTD/sodipodi-0.dtd"
   xmlns:inkscape="http://www.inkscape.org/namespaces/inkscape"
   version="1.1"
   id="svg815"
   width="80"
   height="80"
   viewBox="0 0 80 80"
   sodipodi:docname="search-input.svg"
   inkscape:version="0.92.3 (2405546, 2018-03-11)">
  <metadata
     id="metadata821">
    <rdf:RDF>
      <cc:Work
         rdf:about="">
        <dc:format>image/svg+xml</dc:format>
        <dc:type
           rdf:resource="http://purl.org/dc/dcmitype/StillImage" />
        <dc:title />
      </cc:Work>
    </rdf:RDF>
  </metadata>
  <defs
     id="defs819" />
  <sodipodi:namedview
     pagecolor="#ffffff"
     bordercolor="#666666"
     borderopacity="1"
     objecttolerance="10"
     gridtolerance="10"
     guidetolerance="10"
     inkscape:pageopacity="0"
     inkscape:pageshadow="2"
     inkscape:window-width="1280"
     inkscape:window-height="657"
     id="namedview817"
     showgrid="false"
     inkscape:zoom="6.125"
     inkscape:cx="40.604571"
     inkscape:cy="33.469388"
     inkscape:window-x="-8"
     inkscape:window-y="-8"
     inkscape:window-maximized="1"
     inkscape:current-layer="svg815" />
  <g
     id="g825"
     transform="translate(-1.7959183,-1.6326531)">
    <path
       style="fill:#cbcbcb;stroke-width:1.00101984"
       d="m 57.590353,66.631174 -10.600557,-10.3627 -5,1.942478 C 29.712256,62.980723 13.810624,56.396337 7.8543476,44.076495 5.2519014,38.693647 4.8450962,27.870472 7.0297683,22.138316 12.749873,7.1298699 30.959331,0.1581376 45.276384,7.4950923 c 6.292692,3.2247687 12.2145,10.1003717 14.083769,16.3521697 1.463185,4.893641 1.351726,12.635527 -0.2458,17.073144 l -1.262558,3.507143 9.819,10.125653 c 9.1904,9.477419 9.819001,10.38905 9.819001,14.240045 0,2.942167 -0.62354,4.696496 -2.188561,6.15751 -4.109219,3.836132 -6.355597,2.780909 -17.710882,-8.319583 z M 37.641339,47.909245 C 42.316938,46.607913 48.159927,40.194202 49.062677,35.372311 50.566713,27.338749 44.42784,17.702528 36.905009,16.288356 c -10.484021,-1.970828 -19.193893,4.231778 -20.165133,14.3603 -0.350812,3.658414 0.04807,5.926999 1.566547,8.909535 2.449685,4.811578 3.988042,6.181413 8.923897,7.946312 4.60914,1.648076 5.780218,1.693603 10.411019,0.404742 z"
       id="path839"
       inkscape:connector-curvature="0" />
    <path
       style="fill:#b7b7b7;stroke-width:1.00101984"
       d="m 67.989796,75.782374 c -1.1,-0.623799 -6.075551,-5.387437 -11.056781,-10.585863 l -9.056781,-9.451682 -4.423963,1.498499 -4.423964,1.4985 -2.305306,-3.399486 c -1.80084,-2.655582 -2.994229,-3.399488 -5.453532,-3.399488 -5.332665,0 -11.695481,-3.802864 -14.911675,-8.91226 -2.161757,-3.434268 -3.860015,-4.899011 -6.6365845,-5.724037 L 5.9897959,36.19781 6.0806422,30.143107 C 6.1992491,22.238226 9.5600863,15.625596 15.9429,10.738581 27.804476,1.6567378 43.021041,3.0385129 53.172853,14.119332 c 6.720991,7.336038 8.855918,17.178636 5.728379,26.409388 l -1.588564,4.688555 10.088564,10.143675 c 8.469001,8.515263 10.088564,10.645908 10.088564,13.272187 0,5.494416 -5.336433,9.510355 -9.5,7.149237 z M 39.571484,47.284004 c 5.938694,-2.381043 9.918312,-8.234889 9.918312,-14.589406 0,-3.024168 0.385206,-4.68044 1,-4.299702 3.167219,1.961444 -1.339992,-6.727021 -5.294598,-10.206297 -3.389786,-2.982346 -3.985414,-3.144847 -10.555243,-2.87972 -8.347508,0.336867 -12.695693,2.632123 -15.938249,8.413247 -3.610903,6.437846 -2.479874,16.035563 2.402303,20.385529 5.547877,4.943099 11.505278,5.967753 18.467475,3.176349 z"
       id="path837"
       inkscape:connector-curvature="0" />
    <path
       style="fill:#a6a6a6;stroke-width:1.00101984"
       d="m 59.339526,67.223976 c -4.734714,-4.822321 -9.830591,-10.909719 -11.324172,-13.52755 -1.493581,-2.617832 -3.067886,-4.759694 -3.498456,-4.759694 -0.43057,0 -2.398356,0.676378 -4.372859,1.503061 -7.440354,3.115123 -15.917863,1.10878 -21.840625,-5.168944 -3.506865,-3.717039 -4.813618,-7.363978 -4.813618,-13.434043 0,-4.804333 -0.08364,-4.944971 -2.940983,-4.944971 -4.0249703,0 -4.4817202,-1.258545 -2.2727623,-6.262452 C 10.566131,15.441711 15.292231,10.539443 20.855343,7.5811923 26.70724,4.4693754 39.240477,4.4518402 45.05801,7.5473303 56.788209,13.788931 62.606233,27.10015 59.0148,39.479457 l -1.6731,5.767009 10.074048,10.129078 c 8.295921,8.341239 10.074048,10.66152 10.074048,13.145642 0,4.509659 -2.507923,7.470647 -6.327553,7.470647 -2.718082,0 -4.542771,-1.353209 -11.822717,-8.767857 z M 39.818606,47.569922 c 1.795515,-0.751745 4.553513,-2.893607 6.128884,-4.759693 1.57537,-1.866087 3.214436,-3.289314 3.642368,-3.162728 1.172056,0.346703 2.209011,-3.719769 2.142581,-8.402247 -0.113593,-8.006939 -5.09453,-14.541715 -13.141866,-17.241564 -4.493654,-1.507602 -7.816858,-1.443047 -8.801087,0.170969 -0.439829,0.721267 -2.289585,1.914639 -4.110568,2.651937 -4.808974,1.947109 -8.397909,7.176851 -8.961984,13.059265 -0.605545,6.31489 0.13972,9.124759 3.472994,13.094214 4.739974,5.644636 12.676681,7.500505 19.628678,4.589847 z"
       id="path835"
       inkscape:connector-curvature="0" />
    <path
       style="fill:#979797;stroke-width:1.00101984"
       d="m 65.66411,73.672658 c -1.195873,-1.275545 -2.174314,-3.112444 -2.174314,-4.081996 0,-3.698632 -5.187798,-17.018193 -8.918297,-22.89754 -3.179701,-5.011278 -3.727767,-6.575072 -2.987843,-8.525193 2.258704,-5.952964 -0.201799,-15.368271 -5.225589,-19.996125 -3.213413,-2.960158 -9.047022,-5.308539 -13.186929,-5.308539 -4.430652,0 -9.681342,1.871038 -9.681342,3.449864 0,0.687353 -0.941681,2.10368 -2.092624,3.147396 -6.570487,5.958343 -7.097821,16.50471 -1.177767,23.554653 5.037925,5.999452 13.551784,7.605238 20.770391,3.917473 5.177266,-2.644907 6.343335,-2.531748 3.638671,0.35311 -4.126771,4.401711 -12.519584,5.780545 -18.907142,3.106207 C 15.138299,45.961074 10.57782,33.916526 15.429157,23.209628 c 2.032211,-4.485087 1.550363,-5.33616 -3.021148,-5.33616 -2.7892442,0 -2.383806,-1.150376 1.831787,-5.197453 C 19.207419,7.906972 23.603079,5.795883 29.927292,5.1418346 49.344854,3.1336755 64.654885,22.201881 58.537626,40.775185 l -1.382936,4.198889 10.300068,10.488347 c 10.090647,10.2751 10.287672,10.564892 9.690386,14.253042 -1.02968,6.358125 -7.227338,8.494287 -11.481034,3.957195 z"
       id="path833"
       inkscape:connector-curvature="0" />
    <path
       style="fill:#898989;stroke-width:1.00101984"
       d="M 73.026794,69.428293 C 72.418197,64.547303 71.673175,63.000125 68.038483,59.069136 58.500665,48.753799 56.499673,46.387091 56.506593,45.429589 c 0.004,-0.551122 4.785465,3.833399 10.625515,9.743379 10.086424,10.2072 10.585586,10.909194 9.96566,14.01515 -0.358938,1.798353 -1.260769,3.879126 -2.004068,4.623942 -1.13527,1.137588 -1.465899,0.436348 -2.066906,-4.383767 z M 26.144985,50.481229 C 16.043078,46.872053 10.869281,35.116122 15.01118,25.182933 c 1.888601,-4.529282 3.43414,-6.453243 4.602647,-5.729591 0.49358,0.305672 0.206435,1.540732 -0.638098,2.744579 -4.322195,6.161103 -3.840801,14.762367 1.159483,20.716995 4.261615,5.074977 7.773487,6.361299 15.577514,5.705702 7.289369,-0.612362 8.284518,0.526025 1.990937,2.277505 -4.797014,1.334991 -6.863892,1.260443 -11.558678,-0.416894 z M 55.818786,32.173378 c -1.744056,-2.180751 -3.818556,-5.501247 -4.61,-7.378883 -2.942338,-6.980454 -10.141171,-11.93123 -17.348979,-11.93123 -2.031825,0 -6.085892,-0.755445 -9.009039,-1.678766 -6.362273,-2.009623 -5.855786,-3.5338721 1.784543,-5.3704993 16.498076,-3.9659045 33.5995,9.2368493 32.656347,25.2115663 l -0.301862,5.112811 z"
       id="path831"
       inkscape:connector-curvature="0" />
    <path
       style="fill:#6c6d70;stroke-width:1.00101984"
       d="M 66.540343,56.814994 C 60.793144,50.828582 56.546411,45.93061 57.103158,45.93061 c 1.38778,0 20.386638,19.479598 20.386638,20.902493 0,1.501846 0.905902,2.330694 -10.949453,-10.018109 z M 27.489796,50.765508 C 18.970543,48.339705 12.815501,39.592384 13.754423,31.245296 c 0.813006,-7.227692 2.391309,-7.258297 2.308432,-0.04476 -0.05978,5.202869 0.378342,7.019167 2.409765,9.990119 2.979475,4.357478 8.184316,7.47534 13.566922,8.127009 5.254766,0.636191 5.249319,0.633193 2.950254,1.623152 -2.495993,1.074753 -3.164773,1.059122 -7.5,-0.175306 z"
       id="path829"
       inkscape:connector-curvature="0" />
    <path
       style="fill:#525252;stroke-width:1.00101984"
       d="m 23.280053,48.889202 c -3.784005,-2.002335 -7.996793,-8.066204 -9.191015,-13.22951 -0.998244,-4.315982 0.104802,-3.258385 3.002018,2.878324 2.06207,4.367754 3.754219,6.315622 7.529295,8.667128 2.678195,1.668254 4.869445,3.191248 4.869445,3.38443 0,0.86836 -2.808869,0.09922 -6.209743,-1.700372 z"
       id="path827"
       inkscape:connector-curvature="0" />
  </g>
</svg>
