<?xml version="1.0" encoding="UTF-8"?>
<svg version="1.1" viewBox="0 0 2800 2800" xmlns="http://www.w3.org/2000/svg">
 <g transform="translate(0 1747.6)">
  <rect x="-3.192e-5" y="-1747.6" width="2800" height="2800" rx="0" ry="0" color="#000000" fill="#fff"/>
  <rect x="84.16" y="-1663.5" width="2631.7" height="2631.7" rx="176.18" ry="176.18" color="#000000" fill="#808000"/>
  <g transform="translate(42.913)">
   <path d="m1600.7 111.34c-6.3497 0.11376-12.65 0.94424-18.863 2.5888-79.528 21.052-135.16 14.914-135.16 14.914s-181.35-2.0558-218.27-10.12c-75.608-16.515-127.87-1.6027-158.28 31.144-30.408 32.747-149.96 170.3-149.96 170.3s-23.388 23.388 63.157 67.83 128.65 84.208 128.65 84.208 77.19 280.69 70.173 341.5c-7.0172 60.816-21.052 81.869-11.695 105.26 3.9366 9.8416-3.3429 29.62-13.056 49.233h460.69c-20.09-87.557-39.976-199.23-28.939-243.38 18.712-74.85 44.442-294.72 44.442-294.72s77.19 74.849 102.92 74.849 135.67-133.33 135.67-156.72c0-23.391-60.816-77.189-88.884-109.94-25.876-30.189-107.65-128.31-182.58-126.96z" fill="#00a521"/>
   <path d="m1438.9-1163.5c-153.74 1.1952-326.38 91.421-400.81 138.97-119.09 76.083-324.16 218.31-469.71 155.46 0 0 28.199 175.15 141.29 357.94 43.899-4.2828 90.151-11.532 110.1-23.808-28.917 25.704-61.689 45.114-87.8 58.336 53.628 79.187 123.81 157.82 215.14 222.36 16.564-12.027 36.006-27.28 51.28-42.554-1.4349 21.523-11.597 43.656-22.623 61.837 88.292 56.761 194.98 100.37 323.68 120.12 248.1 6.6159 357.23-26.448 357.23-26.448s301.04-499.51 13.251-899.77c-53.34-91.795-138.79-123.15-231.03-122.44z" fill="#f55"/>
   <path d="m1542.5-979.6c-20.469 1.3564-56.111 15.455-96.021 55.365-49.12 49.12-156.75 233.92-327.5 329.82-124.32 69.826-337.8 41.685-444.77 21.223 10.784 20.423 22.53 41.182 35.443 62.053 43.899-4.2828 90.151-11.532 110.1-23.808-28.917 25.704-61.689 45.114-87.8 58.336 53.628 79.187 123.81 157.82 215.14 222.36 16.564-12.027 36.006-27.28 51.28-42.554-1.4349 21.523-11.597 43.656-22.623 61.837 88.292 56.761 194.98 100.37 323.68 120.12 177.02 4.7206 282.97-10.727 329.33-19.984 32.616-85.599 121.77-342.43 89.04-515.71-39.764-210.52-146.18-327.48-146.18-327.48s-15.034-2.5033-29.124-1.5696z" fill="#ff2d2d"/>
   <path d="m1546.4-976.16c-20.199 0.68678-52.251 10.653-93.187 52.519-72.775 74.429-218.31 329.11-425.05 378.73-4.9619 72.775 31.411 327.53 223.27 459.85 28.61 37.054 102.75 193.32 27.364 209.21 3.6428 20.294 27.683 46.341 71.778 61.499l7.027 45.639 11.689-44.439s71.224 1.769 123.57-58.39c-34.162-13.807-56.387-42.131-41.261-107.68 17.367-75.256 36.359-104.23 36.359-104.23s150.53-135.6 186.91-390.31c36.387-254.71-49.648-411.87-104.23-497.88 0 0-8.5291-5.0588-24.239-4.5246z" fill="#fca"/>
   <circle cx="1140.1" cy="-416.64" r="65.494" color="#000000" fill="#fbbfbf"/>
   <path d="m1271.3-496.92s-71.121-127.36-168.7-67.813c-42.218-22.637-34.733-54.581-34.733-54.581s-29.771 46.311 41.349 89.314c41.149-16.457 56.711-17.734 90.968-8.2698 48.697 13.454 52.927 49.619 71.121 41.349z"/>
   <path d="m1447.1-496.92s71.121-127.36 168.7-67.813c42.218-22.637 34.733-54.581 34.733-54.581s29.772 46.311-41.349 89.314c-41.149-16.457-56.711-17.734-90.968-8.2698-48.697 13.454-52.927 49.619-71.121 41.349z"/>
   <path d="m1113.3-467.89c-3.3197 0.0343-6.4035 0.77449-8.8339 2.6933-11.111 8.7715-1.7539 11.15 4.0938 11.15 5.8476 0 8.1744-10.534 31.565-4.6863 0 0-14.969-9.2798-26.825-9.1571zm14.49 21.061s-28.807 1.5349-32.912 15.082c-4.1051 13.547 4.897 10.129 9.6957 6.787 4.7988-3.3417 0.6793-13.301 23.216-21.869z"/>
   <circle cx="1582.2" cy="-409.62" r="65.494" color="#000000" fill="#fbbfbf"/>
   <path d="m1600.3-467.89c3.3197 0.0343 6.4035 0.77449 8.8339 2.6933 11.111 8.7715 1.7539 11.15-4.0938 11.15s-8.1744-10.534-31.565-4.6863c0 0 14.969-9.2798 26.825-9.1571zm-14.49 21.061s28.807 1.5349 32.912 15.082c4.1051 13.547-4.897 10.129-9.6958 6.787-4.7987-3.3417-0.6791-13.301-23.216-21.869z"/>
   <path d="m1220.8-293.84s30.408 20.467 42.103 49.12c11.695 28.654 29.238 90.639 79.528 97.656 50.29 7.0172 95.902-11.111 124.56-73.096s39.764-101.75 71.926-119.88c-64.324 22.806-76.604 63.155-163.15 75.435s-129.82-36.84-154.96-29.238z"/>
   <path d="m1276.3-266.94s2.9238 45.612 69.587 43.273c66.663-2.3391 113.44-26.899 120.46-67.833-10.526 7.602-81.867 53.799-190.05 24.56z" fill="#fff"/>
   <path d="m1379.8-190.92s-12.865-15.789-38.01-18.713c-25.145-2.9238-41.518 8.1867-41.518 15.789 0 7.602 12.38 56.935 91.909 37.638 42.103-8.7715 46.096-42.901 42.003-50.503-4.0934-7.602-25.73-16.373-40.349-8.7715-14.619 7.602-4.0934 35.671-4.0934 35.671z" fill="#f00"/>
   <path d="m1517.8-748.33s28.117-47.965 52.927-34.733 38.868 39.695 43.003 72.775c-20.675-31.425-57.889-59.543-95.93-38.041z"/>
   <g transform="matrix(1.7237 0 0 1.7237 3495.9 -569.24)">
    <path d="m-1070.3 342.86c-9.4651-0.82306-23.077-3.5321-25.462 15.75l-23.029 186.15s5.9211 8.6258 21.29 9.972c15.369 1.3462 18.681-2.4847 21.468-5.1177l25.366-182.89c2.6374-19.016-10.168-23.046-19.633-23.869z" fill="#b3b3b3"/>
    <path d="m-1083.1 350.21s29.506-195.99 117.78-301.54c26.868-30.706 53.755-57.786 53.755-57.786s-40.787-20.974-24.968-78.47c9.8843-35.927 21.11-124.74 21.11-124.74s95.955-11.515 128.58-32.625c-30.706 142.01-46.058 197.67-113.23 253.32-67.169 55.654-128.82 113.95-161.44 344.24-11.035 9.5955-21.59-2.3989-21.59-2.3989z" fill="#e6e6e6"/>
    <path d="m-904.45-15.605c2.714-1.357 40.032-37.318 58.351-74.636 18.32-37.318 41.389-130.95 50.209-143.84-13.57 10.856-49.755 126.13-57.673 141.13-25.783 48.852-79.385 47.495-71.243 4.071-15.606 32.568 1.357 61.065 20.355 73.279z" fill="#ccc"/>
    <path d="m-829.03-134.81c-5.7788 17.419-11.624 33.484-17.062 44.562-11.593 23.615-30.775 46.678-44 60.781 16.93-12.144 52.805-44.527 61.062-105.34z" fill="#fff"/>
    <path d="m-909.88-205.59c0 4.071-8.8206 92.955-14.249 107.2 9.4991-23.748 16.963-78.707 14.249-107.2z" fill="#fff"/>
    <path d="m-946.12 38.117s-49.897 35.503-91.157 158.33c21.11-46.058 37.423-97.874 91.157-158.33z" fill="#fff"/>
    <path d="m-1084.2 372.5-26.219 178.78c2.5094 1.2418 5.6422 2.3391 9.4688 3l16.75-181.78z" fill="#fff"/>
   </g>
   <path d="m1577.8 114.94c-16.95 4.3358-32.766 7.4426-47.132 9.6418l-14.059 249.4-280.64-2.3701 16.752-249.77c-10.396-0.92682-18.954-1.9579-24.293-3.1242-4.615-1.0082-9.1865-1.8624-13.628-2.6395-0.703 77.374-7.7564 337.49-69.486 486.03 19.884 82.188 40.629 178.83 36.844 211.64-7.0172 60.816-21.045 81.862-11.689 105.25 3.9364 9.8411-3.3411 29.612-13.052 49.216h460.68c-20.09-87.567-39.973-199.25-28.936-243.4 7.588-30.352 16.258-84.505 23.97-138.22-26.251-48.696-60.398-171.3-35.336-471.64z" fill="#007217"/>
   <path d="m1706.4 68.289c-20.483 0.16392-44.226 3.5017-65.716 8.6185-49.12 11.695-86.548 37.425-109.94 77.189-23.391 39.764-98.255 187.12-147.38 198.82-49.12 11.695-290.01 79.505-290.01 79.505l30.38-44.439 1.6698-2.9626c-50.297-54.483-116.84-65.045-173.45-60.814-95.07 125.98-153.67 181.52-181.41 220.52-36.481 51.287-56.136 126.3-56.136 126.3s70.142 21.045 212.83-9.3628c142.68-30.408 404.67-201.18 533.32-245.63 70.172-7.0172 72.54-4.6339 140.37-98.197 53.798 18.713 123.96-7.0464 133.32-63.184 9.3563-56.138-25.731-95.875-16.375-123.94 9.3562-28.069 46.77-21.048 39.752-44.439-3.9471-13.157-24.891-18.202-51.226-17.991z" fill="#fca"/>
   <path d="m1749.2 76.262c3.081 10.816 0.7302 14.42-5.0633 18.476-16.54 11.578-108.97 30.218-108.97 30.218s38.016-3.2793 47.94 19.876c9.1489 27.185 42.159 75.541 36.413 119.1-3.308 18.194-38.036 39.677-61.191 42.985s-43.029-11.6-36.413-24.832 43.038-16.537 43.038-16.537-19.883-16.533-43.038-4.9556c-23.156 11.578-62.814 82.699-85.969 112.47-23.156 29.771-74.477 21.518-89.363 29.788-14.886 8.2699-309.28 140.56-431.68 205.07-122.39 64.505-300.57 63.13-300.57 63.13s70.139 21.035 212.82-9.3726c142.68-30.408 404.67-201.18 533.32-245.63 70.172-7.0172 72.54-4.6339 140.37-98.197 53.798 18.713 123.96-7.0464 133.32-63.184 9.3563-56.138-25.731-95.875-16.375-123.94 9.3562-28.069 46.77-21.048 39.752-44.439-1.2334-4.1116-4.1501-7.4046-8.3491-10.019z" fill="#ffbd91"/>
   <path d="m973.58 323.34c-7.335 0.0104-14.578 0.33293-21.654 0.86184-8.0326 10.644-15.701 20.601-23.216 30.272 26.874-0.80813 56.223 1.5371 62.861 14.813 12.865 25.73-134.5 152.06-134.5 152.06s47.979-42.174 236.25-88.932l30.38-44.439 1.6698-2.9626c-44.01-47.673-100.45-61.744-151.79-61.676z" fill="#ffbd91"/>
   <ellipse transform="matrix(.87929 -.47629 .47629 .87929 0 0)" cx="675.11" cy="420.59" rx="256.51" ry="332.77" color="#000000" fill="#b3b3b3"/>
   <path d="m1199.2 495.3s-53.418-116.26-75.414-138.26c-21.996-21.996-125.69-14.14-131.97-53.418-18.853-3.1422-36.136 3.1422-50.276 18.853-4.7134 32.993 37.707 23.567 56.56 23.567s89.554-4.7133 158.68 163.4c12.569 17.282 42.42-14.14 42.42-14.14z" fill="#ccc"/>
   <path d="m1141 517.2 193.3 382.17s43.996-3.4356 75.418-36.429l-201.1-386.49s-59.064-2.5158-67.62 40.758z" fill="#666"/>
   <path d="m1726.2 477.26 193.51 185.24s-183.59 28.117-243.13 34.733c-59.543 6.6159-215.02 31.425-274.56-71.121-59.543-102.55-115.78-102.55-185.24-52.927-69.467 49.619-82.698 52.927-56.235 92.622-19.848 33.079-9.9238 52.927 23.156 89.314s76.083 79.391 165.4 3.3079c43.003 29.771 102.55 24.81 172.01 44.657 69.467 19.848 430.03 87.66 674.82-24.81-190.92-271.21-353.95-436.65-353.95-436.65s-125.7 56.235-115.78 135.63z" fill="#fca"/>
   <path d="m1268.7-1120.7s-100.58 30.408-362.56 196.48c86.545 14.034 128.65 74.85 128.65 74.85s51.46-32.747 107.6-60.816c-91.224 74.85-121.63 95.902-121.63 95.902s74.85 53.799 88.884 81.867c35.086-28.069 88.884-63.155 88.884-63.155l-91.224 91.224s51.46 39.764 58.477 77.189c79.528-72.511 147.36-135.67 271.33-299.4-77.189-37.425-140.34-102.92-168.41-194.14z" fill="#ff7d7d"/>
   <path d="m1168.8-1076.3c-28.483 14.375-63.596 33.122-106.01 57.367 153.62 78.852 210.5 196.13 231.35 266.2 24.937-27.128 51.963-58.41 82.63-96.419-143.53-74.314-191.76-171.03-207.97-227.15z" fill="#ffa5a5"/>
   <path d="m1643-903.16s159.06 250.28 65.494 552.02c-21.052 81.867 28.069-35.086 37.425-65.494s81.867-201.16-14.034-484.19c-9.3563 32.747-88.884-2.339-88.884-2.339z" fill="#ff7d7d"/>
   <path d="m1715.5-769.84s60.816 208.18 21.052 350.86c32.747-98.241 51.459-208.18 18.713-353.2-16.374 23.391-39.764 2.3391-39.764 2.3391z" fill="#ffa5a5"/>
   <path d="m1580.6-984.84 74.429-54.581s-28.118-86.006-162.09-105.85c59.543 28.118 71.121 52.927 61.197 66.159-9.9237 13.232-46.311 28.118-46.311 28.118s38.041 3.308 36.387 18.194-47.965 34.733-74.429 69.467c47.965-28.117 90.968-39.695 110.82-21.502z" fill="#ff2d2d"/>
   <path d="m1584.8-979.88 76.083-51.273s40.522 54.581 53.754 88.487c-33.906 14.886-90.141-3.308-129.84-37.214z" fill="#ff2d2d"/>
   <path d="m1841.9 341.66s-125.68 56.242-115.76 135.63l193.48 185.24s-183.55 28.073-243.09 34.689c-46.026 5.114-149.39 21.085-221.44-19.284 37.114 30.426 93.955 38.176 171.45 39.86 107.6 2.3391 313.47-35.05 421.07-25.694-53.798-39.764-238.6-191.85-257.31-226.93-13.445-25.21 39.408-76.809 70.294-103.96-11.924-12.717-18.691-19.553-18.691-19.553z" fill="#ffbd91"/>
   <path d="m1251.5-85.065c28.61 37.054 102.75 193.32 27.364 209.21 3.6428 20.294 27.707 46.356 71.802 61.514l7.0026 45.624 11.689-44.439s71.224 1.769 123.57-58.39c-34.162-13.807-56.387-42.131-41.261-107.68 17.367-75.256 36.359-104.23 36.359-104.23-126.53 111.64-236.52-1.616-236.52-1.616z" fill="#ffbd91"/>
   <path d="m1240.6 600.86s-47.636 35.7-88.285 51.334c2.0508 4.0571 4.7517 8.5548 8.1337 13.628-0.2827 0.47112-0.5374 0.93467-0.808 1.4005l80.96-66.362zm40.938 114.89c-12.865 0.29239-21.016 7.8814-33.881 25.424 32.747-11.695 53.782-9.3252 67.816 2.3701 10.333 8.6111-18.671 42.543-77.62 53.327 27.131 9.1925 62.174 3.3384 111.18-38.406 43.003 29.771 102.53 24.807 171.99 44.654 69.467 19.848 430.04 87.638 674.82-24.832 0 0-190.36 2.6802-267.55 26.071-77.189 23.391-458.45-11.71-584.76-70.187-31.577-11.695-49.134-18.714-61.999-18.422z" fill="#ffbd91"/>
   <ellipse transform="matrix(.87929 -.47629 .47629 .87929 0 0)" cx="700.07" cy="420.59" rx="212.14" ry="313.36" color="#000000" fill="#999"/>
   <path d="m785.48-227.14s239.96 115.54 233.3 468.82c15.553-111.09-11.11-377.72-233.3-468.82z" fill="#808080"/>
  </g>
  <g transform="translate(-41.928 -54.689)" fill-rule="evenodd">
   <g transform="translate(2121.3 -161.19)">
    <path transform="translate(0 -1747.6)" d="m-1601.5 1344.4c-0.4557 22.787 8.2031 51.955 8.2031 51.955s-10.938-13.218-27.8-67.907c3.5285 40.252 9.5104 57.373 17.805 82.71-9.4474-16.132-20.392-34.815-27.657-45.567 0 0 30.594 61.001-12.795 118.2-43.389 57.194-27.611 128.19 72.973 128.19s152.59-75.958 138.05-130.17c-16.406-61.172-68.988-44.338-118.82-62.476-24.374-8.8725-37.884-36.675-49.967-74.938z" fill="#ac1c26"/>
    <path transform="translate(0 -1747.6)" d="m-1621.1 1328.4c3.5285 40.252 9.5099 57.372 17.805 82.709-4.9604-8.47-10.323-17.619-15.359-25.978 7.3595 16.551 14.734 35.733 18.975 49.457 18.458 59.732-50.321 164.58 60.322 174.71 29.628-5.1326 53.734-17.384 71.678-33.228 5.7016-22.947 9.1712-46.142-6.1506-68.877-22.813-33.852-82.961-37.825-121.04-116.7 0.9138 3.5583 1.5664 5.8067 1.5664 5.8067s-10.938-13.217-27.801-67.906z" fill="#ca2f41"/>
    <path transform="translate(0 -1747.6)" d="m-1619.4 1344.4c6.7413 44.551 34.953 96.893 42.529 113.93 21.596 44.266 9.8109 107.91 65.121 143.68 2.9714-1.0855 5.8738-2.2416 8.6933-3.4785-4.4502-26.231-6.2297-63.492-41.912-113.77-33.356-47.002-61.652-89.599-74.432-140.36z" fill="#dd495f"/>
    <path d="m-1617.1-310.79s-3.8671 20.624-17.402 42.538c-13.535 21.914-20.625 36.738-22.558 54.784 7.7342-21.269 46.405-50.917 39.96-97.322z" fill="#dd495f"/>
    <path transform="translate(0 -1747.6)" d="m-1484.5 1588.7c-13.52 8.5315-29.423 15.225-47.553 19.199 1.736 8.1636 7.5952 21.57 26.477 35.228-13.535-16.113-9.668-23.848-9.668-23.848s5.8012 14.824 23.203 25.137c-14.824-19.98-10.312-32.871-10.312-32.871s14.18 14.824 19.336 18.047c5.1562 3.2226 7.0897 16.114 0 26.426 10.312-7.0897 13.535-19.336 7.0898-30.293-6.4451-10.957-5.8007-19.334-5.8007-19.334s0.6447 9.666 8.3789 12.889 11.602 12.891 9.0234 22.559c9.2506-19.734-2.7473-40.642-20.174-53.139z" fill="#006738"/>
   </g>
   <path d="m522.06-459.35c1.3333 16.913 0.0478 28.603-3.8671 59.296-3.3586 26.331-8.3787 72.508 18.046 87.01-22.88-8.7009-26.747-40.282-26.425-52.528 0.25936-9.8558 11.978-74.53 12.246-93.777z" fill="#810101"/>
   <path d="m564.89-468.88s20.54 19.88 45.059 33.913c22.007 12.595 54.593 32.074 49.645 69.964 6.1624-19.969-5.3065-43.686-19.862-54.1-26.111-18.684-49.036-26.724-74.842-49.777z" fill="#810101"/>
  </g>
  <g transform="matrix(.36451 .36395 -.36395 .36451 943.36 -684.59)">
   <path d="m-700.02-198.19c0 94.639-70.599 171.36-157.69 171.36-87.088 1.8e-5 -157.69-76.72-157.69-171.36s74.245-257.04 161.33-257.04c87.088 0 154.04 162.4 154.04 257.04z" fill="#f2c291"/>
   <path d="m-747.57-240.12c0 70.476-52.574 127.61-117.43 127.61-64.853 2e-5 -117.43-57.132-117.43-127.61 0-70.476 55.289-191.41 120.14-191.41 64.853 0 114.71 120.94 114.71 191.41z" fill="#ffcc9a"/>
   <path d="m-803.28-291.9c0 44.702-33.347 80.94-74.482 80.94-41.135 2e-5 -74.482-36.238-74.482-80.94s35.069-121.41 76.204-121.41 72.76 76.708 72.76 121.41z" fill="#ffd6ae"/>
  </g>
  <g transform="matrix(.51355 .039842 -.039842 .51355 2304.9 -1196.3)">
   <path d="m-700.02-198.19c0 94.639-70.599 171.36-157.69 171.36-87.088 1.8e-5 -157.69-76.72-157.69-171.36s74.245-257.04 161.33-257.04c87.088 0 154.04 162.4 154.04 257.04z" fill="#f2c291"/>
   <path d="m-747.57-240.12c0 70.476-52.574 127.61-117.43 127.61-64.853 2e-5 -117.43-57.132-117.43-127.61 0-70.476 55.289-191.41 120.14-191.41 64.853 0 114.71 120.94 114.71 191.41z" fill="#ffcc9a"/>
   <path d="m-803.28-291.9c0 44.702-33.347 80.94-74.482 80.94-41.135 2e-5 -74.482-36.238-74.482-80.94s35.069-121.41 76.204-121.41 72.76 76.708 72.76 121.41z" fill="#ffd6ae"/>
  </g>
  <g fill-rule="evenodd">
   <g transform="matrix(1.7701 0 0 1.7701 1800.3 654.42)">
    <path d="m-321.75-1101.9c5.9247-15.04 11.394-67.45 44.663-79.755s26.889 5.4689 22.331 10.026c-4.5574 4.5574-40.105 5.9246-50.132 41.928 26.889-21.876 41.472-32.358 55.145-27.8 13.672 4.5574 0.9115 19.597-13.216 20.964s-34.636 7.7476-44.663 21.42c23.243-11.394 35.092-13.216 41.017-8.2033 5.9247 5.0131-43.296 13.672-50.587 24.154-0.4557-3.1902-4.5574-2.7345-4.5574-2.7345z" fill="#019444"/>
    <path d="m-459.84-978.88s-8.2034 14.128-2.2788 18.685c5.9247 4.5574 20.053 1.3672 77.02-47.853 56.968-49.22 84.312-59.246 80.666-75.653s-13.672-25.066-20.053-28.712c-6.3804-3.6459-19.597-10.482-31.902 6.8362-12.305 17.318-103.45 126.7-103.45 126.7z" fill="#de861c"/>
    <path d="m-346.36-1110.6s-5.9247 1.823-14.128 13.672c-8.2034 11.849-92.06 113.02-92.972 116.21-0.9114 3.1902-2.2787 15.951 12.305 8.2034 14.584-7.7476 103.91-84.768 108.01-91.148s8.2034-14.128 7.2919-22.787c-0.9115-8.6591-16.407-29.168-20.508-24.154z" fill="#f7941d"/>
    <path d="m-438.88-993.92s-5.9246 10.482 5.9247 0 35.092-38.282 49.676-48.309 15.04-16.407 20.508-24.154c5.4689-7.7476 17.774-20.053 15.495-25.066-2.2787-5.0132-1.8229-10.026-10.026-1.3672s-81.578 98.896-81.578 98.896z" fill="#f9a94c"/>
   </g>
   <path d="m1272.9-1396.2s27.714-36.738 58.651-40.605c8.3787 1.9336-10.957 15.468-21.914 18.046s-36.738 22.558-36.738 22.558z" fill="#01cd5e"/>
  </g>
  <g transform="matrix(.83821 -.26114 .26114 .83821 373.7 159.62)" fill-rule="evenodd">
   <g transform="matrix(1.7701 0 0 1.7701 1800.3 654.42)">
    <path d="m-321.75-1101.9c5.9247-15.04 11.394-67.45 44.663-79.755s26.889 5.4689 22.331 10.026c-4.5574 4.5574-40.105 5.9246-50.132 41.928 26.889-21.876 41.472-32.358 55.145-27.8 13.672 4.5574 0.9115 19.597-13.216 20.964s-34.636 7.7476-44.663 21.42c23.243-11.394 35.092-13.216 41.017-8.2033 5.9247 5.0131-43.296 13.672-50.587 24.154-0.4557-3.1902-4.5574-2.7345-4.5574-2.7345z" fill="#019444"/>
    <path d="m-459.84-978.88s-8.2034 14.128-2.2788 18.685c5.9247 4.5574 20.053 1.3672 77.02-47.853 56.968-49.22 84.312-59.246 80.666-75.653s-13.672-25.066-20.053-28.712c-6.3804-3.6459-19.597-10.482-31.902 6.8362-12.305 17.318-103.45 126.7-103.45 126.7z" fill="#de861c"/>
    <path d="m-346.36-1110.6s-5.9247 1.823-14.128 13.672c-8.2034 11.849-92.06 113.02-92.972 116.21-0.9114 3.1902-2.2787 15.951 12.305 8.2034 14.584-7.7476 103.91-84.768 108.01-91.148s8.2034-14.128 7.2919-22.787c-0.9115-8.6591-16.407-29.168-20.508-24.154z" fill="#f7941d"/>
    <path d="m-438.88-993.92s-5.9246 10.482 5.9247 0 35.092-38.282 49.676-48.309 15.04-16.407 20.508-24.154c5.4689-7.7476 17.774-20.053 15.495-25.066-2.2787-5.0132-1.8229-10.026-10.026-1.3672s-81.578 98.896-81.578 98.896z" fill="#f9a94c"/>
   </g>
   <path d="m1272.9-1396.2s27.714-36.738 58.651-40.605c8.3787 1.9336-10.957 15.468-21.914 18.046s-36.738 22.558-36.738 22.558z" fill="#01cd5e"/>
  </g>
  <g transform="matrix(.75141 .65984 -.65984 .75141 3583.3 2193.1)" fill-rule="evenodd">
   <path d="m-2615-793.39s-61.07-25.522-93.883 23.699c-32.813 49.22 1.823 117.58 57.424 133.08 55.6 15.495 107.56 1.8229 127.61-69.273 20.053-71.096-39.194-103.91-91.148-87.503z" fill="#ed1b24"/>
   <path transform="translate(0 -1747.6)" d="m-2555.1 957.33c7.1806 12.305 13.649 27.677 14.783 44.314 2.7344 40.105-22.786 72.008-49.219 80.211-23.563 7.3127-90.582-17.966-86.133 18.428 7.433 4.6686 15.539 8.3403 24.15 10.74 55.6 15.495 107.56 1.8224 127.61-69.273 12.083-42.841-4.633-71.773-31.191-84.42z" fill="#bd161d"/>
   <path d="m-2670.6-769.7c16.989 9.183 19.141 15.951 12.761 32.813-11.63 30.737-24.61 29.168-36.459 20.053s-10.026-71.096 23.699-52.866z" fill="#f4777b"/>
   <path transform="translate(0 -1747.6)" d="m-2646.2 947.75c6.1276 2.3727 12.209 5.5661 15.613 9.6875-23.243 2.2787-25.522 10.482-25.522 10.482l30.99-1.8223s-6.3796 5.9241-3.1894 17.773c11.394-8.2034 12.76-14.584 12.76-14.584s21.421 3.6459 30.08 0c-9.1148-5.9246-17.318-5.4688-17.318-5.4688s11.393-10.938 21.875-6.3809c-2.2212-3.1929-6.4337-5.5354-11.213-7.2559-7.6318 0.32991-15.376 1.6694-22.967 4.0664 0 0-13.447-5.6177-31.109-6.498z" fill="#38b54a"/>
  </g>
  <g transform="matrix(.86633 .17292 -.17292 .86633 4249.5 847.08)" fill-rule="evenodd">
   <path d="m-2615-793.39s-61.07-25.522-93.883 23.699c-32.813 49.22 1.823 117.58 57.424 133.08 55.6 15.495 107.56 1.8229 127.61-69.273 20.053-71.096-39.194-103.91-91.148-87.503z" fill="#ed1b24"/>
   <path transform="translate(0 -1747.6)" d="m-2555.1 957.33c7.1806 12.305 13.649 27.677 14.783 44.314 2.7344 40.105-22.786 72.008-49.219 80.211-23.563 7.3127-90.582-17.966-86.133 18.428 7.433 4.6686 15.539 8.3403 24.15 10.74 55.6 15.495 107.56 1.8224 127.61-69.273 12.083-42.841-4.633-71.773-31.191-84.42z" fill="#bd161d"/>
   <path d="m-2670.6-769.7c16.989 9.183 19.141 15.951 12.761 32.813-11.63 30.737-24.61 29.168-36.459 20.053s-10.026-71.096 23.699-52.866z" fill="#f4777b"/>
   <path transform="translate(0 -1747.6)" d="m-2646.2 947.75c6.1276 2.3727 12.209 5.5661 15.613 9.6875-23.243 2.2787-25.522 10.482-25.522 10.482l30.99-1.8223s-6.3796 5.9241-3.1894 17.773c11.394-8.2034 12.76-14.584 12.76-14.584s21.421 3.6459 30.08 0c-9.1148-5.9246-17.318-5.4688-17.318-5.4688s11.393-10.938 21.875-6.3809c-2.2212-3.1929-6.4337-5.5354-11.213-7.2559-7.6318 0.32991-15.376 1.6694-22.967 4.0664 0 0-13.447-5.6177-31.109-6.498z" fill="#38b54a"/>
  </g>
  <g transform="matrix(1.5698 0 0 1.5698 5765.2 814.94)" fill-rule="evenodd">
   <path d="m-2364.1-1195.1s-18.691 15.468-8.3787 48.983 51.561 114.08 138.57 114.08 85.076-45.116 81.854-57.362-14.179-34.159-52.85-37.382c-38.671-3.2226-59.296 10.312-81.854-32.87-22.558-43.183-59.296-48.983-77.342-35.448z" fill="#9e1f64"/>
   <path transform="translate(0 -1747.6)" d="m-2365.4 516.57c-2.8023 0.13471-5.3667 2.5525-5.623 9.7305-0.3502 9.8056 6.1234 20.355 9.1582 24.744-0.7764 0.47681-1.5269 0.98405-2.2461 1.5234 0 0-4.8874 4.0603-8.2851 12.502 2.098-2.568 4.6508-5.3735 6.3867-6.1836 0.6836 5.4689 5.2402 12.762 5.2402 12.762s2.5065-7.52 2.7344-13.217c6.8362 6.1525 11.623 6.1523 11.623 6.1523s-2.2792-8.2031-6.3808-12.305c6.2641-1.1654 10.549-4.0891 12.842-6.0547-0.9317-0.0707-1.8565-0.11816-2.7696-0.12891-5.789-0.0681-11.174 1.0574-15.818 3.1816-2.7948-4.2425-3.8691-8.7314-4.0528-12.037-0.2279-4.1017 6.6076-14.584 3.1895-18.002-1.4954-1.4954-3.8184-2.7727-5.9981-2.668z" fill="#009443"/>
   <path d="m-2344.4-1193.5s35.126 13.857 54.784 53.495c-2.9003-16.113-24.169-52.85-54.784-53.495z" fill="#b04c82"/>
   <path d="m-2284.5-1125.5s16.435 31.581 57.684 33.515c41.249 1.9336 41.571-8.7009 41.571-11.601 0-2.9003-1.9336-12.246-32.548-9.0232-30.615 3.2226-50.272 6.4452-66.708-12.89z" fill="#b04c82"/>
   <path transform="translate(0 -1747.6)" d="m-2371 562.05c-3.977 7.9296-7.1605 20.943-1.4512 39.498 10.312 33.515 51.56 114.08 138.57 114.08s85.076-45.117 81.854-57.363c-2.275-8.6451-8.4196-22.1-25.434-30.404 10.644 12.889 15.255 26.53 14.068 40.172-1.0667 12.267-40.561 48.308-89.781 35.092-54.722-14.694-94.339-60.156-109.38-98.895-7.0394-18.132-8.686-32.269-8.4472-42.18z" fill="#7d194f"/>
  </g>
 </g>
</svg>
